<?xml version="1.0" encoding="UTF-8"?>
<svg width="100%" height="100%" viewBox="0 0 1124 189" version="1.1" xmlns="http://www.w3.org/2000/svg">
    <g id="Page-1" stroke="none" stroke-width="1" fill="none" fill-rule="evenodd">
        <path d="M779.20107,167.89517 L775.66022,167.89517 C775.55212,167.89517 775.46449,167.98326 775.46564,168.09159 L775.54085,176.1156 C775.54269,176.30926 775.2913,176.38631 775.184351,176.22508 L769.699311,167.98211 C769.663201,167.9276 769.602481,167.89517 769.537391,167.89517 L766.30681,167.89517 C766.199171,167.89517 766.112001,167.98234 766.112001,168.08952 L766.112001,183.80519 C766.112001,183.91283 766.199171,184 766.30681,184 L769.84697,184 C769.9553,184 770.042701,183.91168 770.041781,183.80312 L769.966571,176.37964 C769.964731,176.1892 770.209221,176.10985 770.319621,176.26464 L775.783041,183.91835 C775.819611,183.96941 775.87849,184 775.941511,184 L779.200841,184 C779.308481,184 779.395421,183.9126 779.395421,183.80519 L779.395421,168.08952 C779.395421,167.98234 779.308481,167.89517 779.201071,167.89517 L779.20107,167.89517 Z M786.54612,171.61496 C782.97675,171.61496 780.073,174.47869 780.073,177.99861 C780.073,181.51853 782.97675,184.38249 786.54612,184.38249 C790.11549,184.38249 793.01924,181.51853 793.01924,177.99861 C793.01924,174.47869 790.11549,171.61496 786.54612,171.61496 Z M786.54612,180.78184 C784.99017,180.78184 783.72425,179.5334 783.72425,177.99861 C783.72425,176.46405 784.99017,175.21561 786.54612,175.21561 C788.1023,175.21561 789.36822,176.46428 789.36822,177.99861 C789.36822,179.5334 788.1023,180.78184 786.54612,180.78184 Z M800.29851,180.82991 L799.63588,180.82991 C799.27455,180.82991 799.00315,180.74021 798.82904,180.56265 C798.531419,180.25974 798.54844,179.75213 798.560859,179.3816 L798.563389,179.29742 C798.564309,179.26683 798.564769,176.27614 798.564999,175.26391 C798.564999,175.15627 798.652169,175.07002 798.759809,175.07002 L800.025269,175.07002 C800.132449,175.07002 800.219849,174.98262 800.219849,174.87521 L800.219849,171.99078 C800.219849,171.8836 800.132449,171.7962 800.025269,171.7962 L798.759809,171.7962 C798.652169,171.7962 798.564999,171.70903 798.564999,171.60139 L798.564999,168.25719 C798.564999,168.14978 798.477829,168.06238 798.370419,168.06238 L794.96366,168.06238 C794.85602,168.06238 794.76885,168.14978 794.76885,168.25719 L794.76885,171.60139 C794.76885,171.70903 794.68145,171.7962 794.57404,171.7962 L793.30881,171.7962 C793.20117,171.7962 793.114,171.8836 793.114,171.99078 L793.114,174.87521 C793.114,174.98285 793.20117,175.07002 793.30881,175.07002 L794.57404,175.07002 C794.68145,175.07002 794.76885,175.15719 794.76885,175.2646 L794.76885,181.1181 C794.76885,183.019049 795.86319,184.081189 797.93319,184.189749 C797.94952,184.190669 797.9716,184.191129 797.99897,184.191129 C798.33891,184.191129 799.45602,184.127649 799.87393,184.103039 C799.965701,184.097519 800.041141,184.028749 800.05471,183.937669 L800.49102,181.053929 C800.50896,180.936399 800.41765,180.829909 800.298511,180.829909 L800.29851,180.82991 Z M817.37992,171.80149 L813.97316,171.80149 C813.86552,171.80149 813.77835,171.88889 813.77835,171.9963 L813.77835,172.36798 C813.77835,172.44296 813.69762,172.48873 813.6323,172.4517 C812.65572,171.89993 811.55218,171.60967 810.42012,171.60967 C806.85075,171.60967 803.947,174.47317 803.947,177.99332 C803.947,181.51347 806.85075,184.3772 810.42012,184.3772 C811.55241,184.3772 812.65595,184.08694 813.6323,183.53471 C813.69762,183.498141 813.77835,183.54368 813.77835,183.61866 L813.77835,183.79829 C813.77835,183.90593 813.86552,183.9931 813.97316,183.9931 L817.379919,183.9931 C817.487559,183.9931 817.574499,183.90593 817.574499,183.79829 L817.574499,171.9963 C817.574499,171.88889 817.487559,171.80149 817.379919,171.80149 L817.37992,171.80149 Z M811.004089,180.92122 C809.36695,180.92122 808.03525,179.60792 808.03525,177.99355 C808.03525,176.37895 809.36695,175.06565 811.004089,175.06565 C812.641459,175.06565 813.778119,176.37895 813.778119,177.99355 C813.778119,179.60792 812.641459,180.92122 811.004089,180.92122 Z M822.98019,167.967849 C823.24699,167.953819 823.41834,167.967619 823.42547,167.968079 L823.42547,167.968079 L825.35379,167.96785 C825.46902,167.96785 825.55895,168.06721 825.54745,168.18198 L825.54745,168.18198 L825.27536,170.86447 C825.26524,170.96406 825.18152,171.0395 825.0817,171.0395 L825.0817,171.0395 L824.682651,171.039499 C824.348921,171.039499 824.091321,171.129429 823.917441,171.306529 C823.624421,171.604839 823.608091,172.158909 823.609701,172.573829 C823.609931,172.681009 823.696871,172.767719 823.804511,172.767719 L823.804511,172.767719 L825.07227,172.767719 C825.179451,172.767719 825.266851,172.854889 825.266851,172.962299 L825.266851,172.962299 L825.266851,175.836609 C825.266851,175.943789 825.179451,176.031189 825.07227,176.031189 L825.07227,176.031189 L823.80681,176.031189 C823.699171,176.031189 823.612001,176.118359 823.612001,176.225769 L823.612001,176.225769 L823.607171,183.805649 C823.607171,183.912829 823.51977,183.999999 823.412361,183.999999 L823.412361,183.999999 L820.00652,183.999999 C819.89865,183.999999 819.81125,183.912139 819.81194,183.804269 L819.81194,183.804269 L819.81585,183.134739 L819.81585,176.225999 C819.81585,176.118589 819.72845,176.031189 819.62104,176.031189 L819.62104,176.031189 L818.35581,176.031189 C818.248171,176.031189 818.161001,175.944019 818.161001,175.836609 L818.161001,175.836609 L818.161001,172.962299 C818.161001,172.854889 818.248171,172.767719 818.35581,172.767719 L818.35581,172.767719 L819.62104,172.767719 C819.72845,172.767719 819.81585,172.680549 819.81585,172.572909 L819.81585,172.572909 L819.81585,171.135639 C819.81585,168.426699 822.02868,168.017759 822.98019,167.967849 Z M830.20219,167.967849 C830.46899,167.953819 830.64034,167.967619 830.64747,167.968079 L830.64747,167.968079 L832.57579,167.96785 C832.69102,167.96785 832.78095,168.06721 832.76945,168.18198 L832.76945,168.18198 L832.49736,170.86447 C832.48724,170.96406 832.40352,171.0395 832.3037,171.0395 L832.3037,171.0395 L831.904651,171.039499 C831.570921,171.039499 831.313321,171.129429 831.139441,171.306529 C830.846421,171.604839 830.830091,172.158909 830.831701,172.573829 C830.831931,172.681009 830.918871,172.767719 831.026511,172.767719 L831.026511,172.767719 L832.29427,172.767719 C832.401451,172.767719 832.488851,172.854889 832.488851,172.962299 L832.488851,172.962299 L832.488851,175.836609 C832.488851,175.943789 832.401451,176.031189 832.29427,176.031189 L832.29427,176.031189 L831.02881,176.031189 C830.921171,176.031189 830.834001,176.118359 830.834001,176.225769 L830.834001,176.225769 L830.829171,183.805649 C830.829171,183.912829 830.74177,183.999999 830.634361,183.999999 L830.634361,183.999999 L827.22852,183.999999 C827.12065,183.999999 827.03325,183.912139 827.03394,183.804269 L827.03394,183.804269 L827.03785,183.134739 L827.03785,176.225999 C827.03785,176.118589 826.95045,176.031189 826.84304,176.031189 L826.84304,176.031189 L825.57781,176.031189 C825.470171,176.031189 825.383001,175.944019 825.383001,175.836609 L825.383001,175.836609 L825.383001,172.962299 C825.383001,172.854889 825.470171,172.767719 825.57781,172.767719 L825.57781,172.767719 L826.84304,172.767719 C826.95045,172.767719 827.03785,172.680549 827.03785,172.572909 L827.03785,172.572909 L827.03785,171.135639 C827.03785,168.426699 829.25068,168.017759 830.20219,167.967849 Z M836.68957,171.80839 L833.28281,171.80839 C833.17517,171.80839 833.088,171.89579 833.088,172.0032 L833.088,183.80519 C833.088,183.91283 833.17517,184 833.28281,184 L836.68957,184 C836.79721,184 836.88415,183.91283 836.88415,183.80519 L836.88415,172.0032 C836.88415,171.89556 836.79721,171.80839 836.68957,171.80839 L836.68957,171.80839 Z M836.68957,167.96877 L833.28281,167.96877 C833.17517,167.96877 833.088,168.05571 833.088,168.16335 L833.088,170.6508 C833.088,170.75844 833.17517,170.845609 833.28281,170.845609 L836.68957,170.845609 C836.79721,170.845609 836.88415,170.75844 836.88415,170.6508 L836.88415,168.16335 C836.88415,168.05571 836.79721,167.96877 836.68957,167.96877 Z M841.76038,167.96877 L838.15881,167.96877 C838.05117,167.96877 837.964,168.05571 837.964,168.16335 L837.964,183.80519 C837.964,183.9126 838.05117,184 838.15881,184 L841.76038,184 C841.86779,184 841.95496,183.9126 841.95496,183.80519 L841.95496,168.16335 C841.95496,168.05571 841.86779,167.96877 841.76038,167.96877 Z M846.62557,171.80839 L843.21881,171.80839 C843.11117,171.80839 843.024,171.89579 843.024,172.0032 L843.024,183.80519 C843.024,183.91283 843.11117,184 843.21881,184 L846.62557,184 C846.73321,184 846.82015,183.91283 846.82015,183.80519 L846.82015,172.0032 C846.82015,171.89556 846.73321,171.80839 846.62557,171.80839 L846.62557,171.80839 Z M846.62557,167.96877 L843.21881,167.96877 C843.11117,167.96877 843.024,168.05571 843.024,168.16335 L843.024,170.6508 C843.024,170.75844 843.11117,170.845609 843.21881,170.845609 L846.62557,170.845609 C846.73321,170.845609 846.82015,170.75844 846.82015,170.6508 L846.82015,168.16335 C846.82015,168.05571 846.73321,167.96877 846.62557,167.96877 Z M860.89592,171.80149 L857.48916,171.80149 C857.38152,171.80149 857.29435,171.88889 857.29435,171.9963 L857.29435,172.36798 C857.29435,172.44296 857.21362,172.48873 857.1483,172.4517 C856.17172,171.89993 855.06818,171.60967 853.93612,171.60967 C850.36675,171.60967 847.463,174.47317 847.463,177.99332 C847.463,181.51347 850.36675,184.3772 853.93612,184.3772 C855.06841,184.3772 856.17195,184.08694 857.1483,183.53471 C857.21362,183.498141 857.29435,183.54368 857.29435,183.61866 L857.29435,183.79829 C857.29435,183.90593 857.38152,183.9931 857.48916,183.9931 L860.895919,183.9931 C861.003559,183.9931 861.090499,183.90593 861.090499,183.79829 L861.090499,171.9963 C861.090499,171.88889 861.003559,171.80149 860.895919,171.80149 L860.89592,171.80149 Z M854.520089,180.92122 C852.88295,180.92122 851.55125,179.60792 851.55125,177.99355 C851.55125,176.37895 852.88295,175.06565 854.520089,175.06565 C856.157459,175.06565 857.294119,176.37895 857.294119,177.99355 C857.294119,179.60792 856.157459,180.92122 854.520089,180.92122 Z M868.81551,180.82991 L868.15288,180.82991 C867.79155,180.82991 867.52015,180.74021 867.34604,180.56265 C867.048419,180.25974 867.06544,179.75213 867.077859,179.3816 L867.080389,179.29742 C867.081309,179.26683 867.081769,176.27614 867.081999,175.26391 C867.081999,175.15627 867.169169,175.07002 867.276809,175.07002 L868.542269,175.07002 C868.649449,175.07002 868.736849,174.98262 868.736849,174.87521 L868.736849,171.99078 C868.736849,171.8836 868.649449,171.7962 868.542269,171.7962 L867.276809,171.7962 C867.169169,171.7962 867.081999,171.70903 867.081999,171.60139 L867.081999,168.25719 C867.081999,168.14978 866.994829,168.06238 866.887419,168.06238 L863.48066,168.06238 C863.37302,168.06238 863.28585,168.14978 863.28585,168.25719 L863.28585,171.60139 C863.28585,171.70903 863.19845,171.7962 863.09104,171.7962 L861.82581,171.7962 C861.71817,171.7962 861.631,171.8836 861.631,171.99078 L861.631,174.87521 C861.631,174.98285 861.71817,175.07002 861.82581,175.07002 L863.09104,175.07002 C863.19845,175.07002 863.28585,175.15719 863.28585,175.2646 L863.28585,181.1181 C863.28585,183.019049 864.38019,184.081189 866.45019,184.189749 C866.46652,184.190669 866.4886,184.191129 866.51597,184.191129 C866.85591,184.191129 867.97302,184.127649 868.39093,184.103039 C868.482701,184.097519 868.558141,184.028749 868.57171,183.937669 L869.00802,181.053929 C869.02596,180.936399 868.93465,180.829909 868.815511,180.829909 L868.81551,180.82991 Z M881.92643,176.19564 C881.79027,175.73794 881.59914,175.29266 881.35787,174.87107 L881.35971,174.87015 L881.24011,174.67235 C881.21067,174.62474 881.18031,174.57759 881.14972,174.53067 L881.08003,174.42533 C881.04461,174.37151 881.00712,174.31907 880.96825,174.26778 L880.96135,174.25881 C880.9142,174.19441 880.86567,174.13139 880.81599,174.06929 L880.77551,174.01915 C880.73319,173.96694 880.69041,173.91542 880.64671,173.86482 L880.6129,173.82526 L880.5393,173.88805 L880.60255,173.81376 C880.53447,173.73671 880.46156,173.65782 880.37991,173.57387 L880.34081,173.53408 C880.28998,173.48302 880.23846,173.43288 880.18625,173.38366 L880.16969,173.36756 C880.10506,173.305921 880.03882,173.246351 879.97051,173.188851 L879.91876,173.145151 C879.828139,173.068561 879.74235,172.999561 879.653799,172.932631 C879.6331,172.916761 879.6124,172.901581 879.59124,172.8864 L879.57399,172.87352 C879.47118,172.79831 879.36492,172.72494 879.25245,172.65203 L879.23888,172.64375 C879.13216,172.576361 878.95506,172.47102 878.84489,172.40984 C878.81568,172.39351 878.78624,172.37787 878.75542,172.36177 L878.70482,172.444111 L878.7453,172.356481 L878.72828,172.34774 C878.67837,172.321981 878.62846,172.296451 878.57303,172.269311 L878.54451,172.255971 C878.43204,172.201921 878.32141,172.152471 878.21653,172.109001 L878.18433,172.096121 C878.12016,172.070131 878.05576,172.044831 877.98239,172.01746 C877.95801,172.00849 877.93363,171.99975 877.90948,171.99147 C877.83013,171.96318 877.75055,171.93627 877.66568,171.90959 L877.65165,171.90522 C877.56816,171.87946 877.47708,171.853701 877.37358,171.826791 L877.294,171.80655 C877.11276,171.761701 876.927149,171.724441 876.742459,171.695461 L876.66495,171.683731 C876.47497,171.656361 876.28062,171.636811 876.0842,171.625771 L876.0129,171.622091 C875.90043,171.617261 875.80636,171.61496 875.71735,171.61496 C875.62696,171.61496 875.52898,171.617261 875.4172,171.622321 C875.39351,171.623471 875.36982,171.625081 875.34636,171.626231 L875.32888,171.627611 C875.25551,171.631751 875.18237,171.637271 875.109921,171.643711 L875.08715,171.645781 C875.065761,171.647851 875.044141,171.649921 875.022981,171.65199 C874.916951,171.663261 874.8238,171.674761 874.738701,171.687411 L874.73571,171.687871 C874.73456,171.688101 874.73295,171.688331 874.73157,171.688331 L874.71639,171.690631 C874.63152,171.703741 874.49306,171.728811 874.40911,171.746291 L874.36012,171.756411 C874.2902,171.771361 874.22074,171.787 874.15128,171.80402 L874.12966,171.80931 C874.10919,171.81437 874.08895,171.819201 874.06894,171.824261 C873.97579,171.848411 873.88379,171.873711 873.79156,171.902001 C873.70071,171.929831 873.61078,171.960421 873.52154,171.992161 C873.5013,171.999291 873.48106,172.006651 873.46082,172.014471 L873.44219,172.021371 C873.37641,172.045751 873.31132,172.071051 873.246459,172.097501 L873.228519,172.104631 C873.20851,172.112911 873.1885,172.120961 873.16849,172.129241 C873.08201,172.165811 872.99622,172.203761 872.90997,172.244701 C872.82533,172.284951 872.7423,172.327501 872.65973,172.370971 C872.63995,172.381321 872.62086,172.392131 872.60154,172.402481 L872.5859,172.410991 C872.52518,172.444341 872.46538,172.478151 872.40558,172.513341 L872.33382,172.555891 C872.25447,172.603961 872.17581,172.653181 872.09876,172.704471 C871.32688,173.218291 870.66356,173.904611 870.18079,174.688911 C870.13226,174.767571 870.0858,174.847841 870.04072,174.928801 L869.9846,175.032071 C869.97356,175.052081 869.96275,175.072091 869.95217,175.092331 C869.94182,175.111651 869.93216,175.131431 869.92273,175.151211 L869.89858,175.199741 C869.88869,175.219521 869.8788,175.239301 869.86937,175.259081 C869.82889,175.342801 869.78979,175.427441 869.75276,175.513231 C869.68905,175.661811 869.62902,175.821201 869.56945,175.99968 C869.38798,176.54225 869.28149,177.10437 869.25251,177.66994 C869.24676,177.77827 869.244,177.888671 869.244,177.998611 C869.244,178.10809 869.24676,178.21872 869.25251,178.32705 C869.26884,178.648821 869.31047,178.971281 869.375331,179.285001 C869.39718,179.389881 869.42156,179.493611 869.44778,179.593661 C869.47975,179.716251 869.51839,179.844361 869.56945,179.997311 C869.66076,180.271241 869.76955,180.536431 869.89191,180.784831 C869.90203,180.804841 869.91215,180.824621 869.922731,180.844401 L869.941591,180.880741 C869.975631,180.946751 870.010131,181.012991 870.046241,181.077621 L870.062801,181.108901 C870.100981,181.176061 870.140311,181.242301 870.180791,181.307851 C870.663561,182.092381 871.326881,182.778471 872.098761,183.292291 C872.175811,183.343811 872.254471,183.393031 872.333821,183.441101 L872.405581,183.483651 C872.464921,183.518611 872.525181,183.552651 872.585671,183.585771 L872.601311,183.594281 C872.620631,183.604861 872.639951,183.615441 872.65927,183.625791 C872.74184,183.669491 872.8251,183.712041 872.90192,183.748151 L872.91112,183.752982 C872.99599,183.793002 873.08178,183.830952 873.16826,183.867522 C873.18827,183.876031 873.20828,183.884311 873.22829,183.892131 L873.24623,183.899492 C873.310859,183.925941 873.376179,183.951011 873.44173,183.975391 L873.457829,183.981601 C873.47876,183.989421 873.500149,183.997241 873.521079,184.004831 C873.61032,184.036571 873.70025,184.067161 873.79248,184.095221 C873.87482,184.120751 873.965209,184.145821 874.068019,184.172501 C874.08826,184.177791 874.10873,184.182621 874.12897,184.187452 L874.15105,184.192972 C874.22028,184.209762 874.28997,184.225632 874.359889,184.240582 L874.44407,184.258061 C874.52204,184.274161 874.60047,184.288421 874.67959,184.300611 L874.73111,184.308661 C874.73272,184.308661 874.73387,184.308891 874.73548,184.309351 L874.73824,184.309581 C874.82334,184.322231 874.91672,184.333731 875.02252,184.345001 C875.04368,184.347071 875.0653,184.349141 875.08646,184.350981 L875.10923,184.353051 C875.18214,184.359721 875.25528,184.365241 875.32865,184.369381 L875.3505,184.370991 C875.37235,184.372371 875.39466,184.373521 875.41697,184.374671 C875.52852,184.379731 875.6265,184.382031 875.71712,184.382031 C875.80613,184.382031 875.89997,184.379731 876.01612,184.374901 L876.08742,184.370991 C876.28039,184.360181 876.47474,184.340861 876.67139,184.312571 L876.74154,184.301761 C876.92669,184.272551 877.11253,184.235291 877.2986,184.189291 L877.37243,184.170431 C877.47685,184.143291 877.56816,184.117531 877.65533,184.090621 L877.66982,184.085791 C877.75101,184.060491 877.83128,184.033351 877.91109,184.004831 L877.99021,183.976081 C878.05553,183.952161 878.12016,183.926631 878.19353,183.897191 L878.21538,183.888451 C878.32348,183.843831 878.43204,183.795071 878.5475,183.739411 L878.5774,183.725381 C878.628,183.700771 878.6786,183.675241 878.73541,183.645571 L878.75611,183.634991 C878.78578,183.619351 878.81545,183.603481 878.84489,183.587611 L878.88031,183.567601 C879.00313,183.499521 879.12457,183.426841 879.24509,183.349791 L879.27476,183.330471 C879.37941,183.262621 879.48222,183.191321 879.58273,183.117031 L879.655869,183.062751 C879.741889,182.997661 879.82791,182.928891 879.91945,182.851611 L879.85597,182.778931 L879.92957,182.843331 L879.99443,182.788131 C880.05446,182.737071 880.11288,182.684171 880.16969,182.629891 L880.18556,182.614711 C880.238,182.565031 880.28998,182.514201 880.34104,182.462911 L880.38497,182.418291 C880.463859,182.337331 880.534929,182.26005 880.607839,182.17794 L880.646019,182.13332 C880.690179,182.0818 880.733879,182.02982 880.779419,181.97347 L880.815529,181.92862 C880.839219,181.898951 880.862449,181.86859 880.885449,181.83823 L880.888669,181.83915 L880.930299,181.78303 C880.999529,181.69011 881.069219,181.59006 881.145579,181.47391 C881.206299,181.38122 881.258049,181.29842 881.308189,181.21378 L881.362469,181.12454 L881.359939,181.12316 C881.413989,181.02725 881.506679,180.8375 881.580279,180.68409 C881.635939,180.56817 881.565789,180.43132 881.439059,180.40878 L878.169149,179.82113 C878.097389,179.80825 878.025399,179.83769 877.980319,179.89542 C877.394509,180.64476 876.571799,181.03323 875.689289,181.03323 C874.651529,181.03323 873.712209,180.47962 873.187349,179.58998 C873.110299,179.45957 873.203449,179.2942 873.354789,179.2942 L881.893309,179.2942 C881.988759,179.2942 882.069719,179.22566 882.085819,179.13159 C882.148609,178.76451 882.190239,178.35005 882.190239,177.99838 C882.190009,177.38911 882.101459,176.78237 881.926429,176.19564 L881.92643,176.19564 Z M878.183179,176.60826 L873.543619,176.60826 C873.421719,176.60826 873.329029,176.49671 873.351569,176.37688 C873.521309,175.47712 874.661879,174.78137 875.863168,174.78137 C877.184749,174.78137 878.224119,175.48195 878.375689,176.3801 C878.395929,176.49924 878.303929,176.60826 878.183179,176.60826 Z M895.80992,167.96187 L892.40316,167.96187 C892.29552,167.96187 892.20835,168.04881 892.20835,168.15645 L892.20835,172.36798 C892.20835,172.44296 892.12762,172.48873 892.0623,172.4517 C891.08572,171.89993 889.98218,171.60967 888.85012,171.60967 C885.28075,171.60967 882.377,174.47317 882.377,177.99332 C882.377,181.51347 885.28075,184.3772 888.85012,184.3772 C889.98241,184.3772 891.08595,184.08694 892.0623,183.53471 C892.12762,183.49791 892.20835,183.54368 892.20835,183.61866 L892.20835,183.79829 C892.20835,183.90593 892.29552,183.9931 892.40316,183.9931 L895.809919,183.9931 C895.917559,183.9931 896.004499,183.90593 896.004499,183.79829 L896.004499,168.15645 C896.004499,168.04881 895.917559,167.96187 895.809919,167.96187 L895.80992,167.96187 Z M889.434089,180.92122 C887.79695,180.92122 886.46525,179.60792 886.46525,177.99355 C886.46525,176.37895 887.79695,175.06565 889.434089,175.06565 C891.071459,175.06565 892.208119,176.37895 892.208119,177.99355 C892.208119,179.60792 891.071459,180.92122 889.434089,180.92122 Z M916.916697,171.80846 L913.521569,171.80846 C913.429193,171.80846 913.349472,171.873387 913.33088,171.963913 L912.081422,178.032001 C912.046282,178.202833 911.808772,178.219478 911.750076,178.055168 L909.566541,171.937728 C909.538897,171.860245 909.465503,171.80846 909.383153,171.80846 L907.378238,171.80846 C907.295985,171.80846 907.222591,171.860245 907.194946,171.937728 L905.038083,177.980313 C904.971892,178.165746 904.70372,178.146959 904.664102,177.954128 L903.430607,171.963912 C903.412015,171.873386 903.332294,171.80846 903.239918,171.80846 L899.84479,171.80846 C899.716788,171.80846 899.623634,171.929843 899.656729,172.053465 L902.816099,183.855667 C902.838876,183.94084 902.915969,183.999925 903.00416,183.999925 L906.560385,183.999925 C906.642735,183.999925 906.716129,183.94814 906.743774,183.870657 L908.197549,179.797848 C908.259068,179.625556 908.502711,179.625556 908.56423,179.797848 L910.018005,183.870657 C910.04565,183.94814 910.119142,183.999925 910.201394,183.999925 L913.757619,183.999925 C913.845712,183.999925 913.922903,183.940742 913.945681,183.855667 L917.104758,172.053465 C917.137854,171.929843 917.044699,171.80846 916.916697,171.80846 L916.916697,171.80846 Z M921.14557,171.80839 L917.73881,171.80839 C917.63117,171.80839 917.544,171.89579 917.544,172.0032 L917.544,183.80519 C917.544,183.91283 917.63117,184 917.73881,184 L921.14557,184 C921.25321,184 921.34015,183.91283 921.34015,183.80519 L921.34015,172.0032 C921.34015,171.89556 921.25321,171.80839 921.14557,171.80839 L921.14557,171.80839 Z M921.14557,167.96877 L917.73881,167.96877 C917.63117,167.96877 917.544,168.05571 917.544,168.16335 L917.544,170.6508 C917.544,170.75844 917.63117,170.845609 917.73881,170.845609 L921.14557,170.845609 C921.25321,170.845609 921.34015,170.75844 921.34015,170.6508 L921.34015,168.16335 C921.34015,168.05571 921.25321,167.96877 921.14557,167.96877 Z M929.07551,180.82991 L928.41288,180.82991 C928.05155,180.82991 927.78015,180.74021 927.60604,180.56265 C927.308419,180.25974 927.32544,179.75213 927.337859,179.3816 L927.340389,179.29742 C927.341309,179.26683 927.341769,176.27614 927.341999,175.26391 C927.341999,175.15627 927.429169,175.07002 927.536809,175.07002 L928.802269,175.07002 C928.909449,175.07002 928.996849,174.98262 928.996849,174.87521 L928.996849,171.99078 C928.996849,171.8836 928.909449,171.7962 928.802269,171.7962 L927.536809,171.7962 C927.429169,171.7962 927.341999,171.70903 927.341999,171.60139 L927.341999,168.25719 C927.341999,168.14978 927.254829,168.06238 927.147419,168.06238 L923.74066,168.06238 C923.63302,168.06238 923.54585,168.14978 923.54585,168.25719 L923.54585,171.60139 C923.54585,171.70903 923.45845,171.7962 923.35104,171.7962 L922.08581,171.7962 C921.97817,171.7962 921.891,171.8836 921.891,171.99078 L921.891,174.87521 C921.891,174.98285 921.97817,175.07002 922.08581,175.07002 L923.35104,175.07002 C923.45845,175.07002 923.54585,175.15719 923.54585,175.2646 L923.54585,181.1181 C923.54585,183.019049 924.64019,184.081189 926.71019,184.189749 C926.72652,184.190669 926.7486,184.191129 926.77597,184.191129 C927.11591,184.191129 928.23302,184.127649 928.65093,184.103039 C928.742701,184.097519 928.818141,184.028749 928.83171,183.937669 L929.26802,181.053929 C929.28596,180.936399 929.19465,180.829909 929.075511,180.829909 L929.07551,180.82991 Z M939.61066,172.88456 L939.6102,172.8841 C939.52602,172.80038 939.4331,172.71896 939.33558,172.6426 C939.30798,172.62029 936.63492,170.522 933.88895,172.41191 C933.82455,172.45607 933.73715,172.40938 933.73715,172.33164 L933.73715,168.16335 C933.73715,168.05571 933.65021,167.96877 933.54257,167.96877 L930.13581,167.96877 C930.02817,167.96877 929.941,168.05571 929.941,168.16335 L929.941,183.80519 C929.941,183.9126 930.02817,184 930.13581,184 L933.77165,184 C933.87906,184 933.96623,183.9126 933.96623,183.80519 L933.96623,177.13657 C933.96623,176.67404 933.96623,176.09881 934.16357,175.67699 C934.33607,175.28852 934.87933,175.04748 935.58106,175.04748 C935.95872,175.04748 936.25312,175.13396 936.48082,175.31267 C936.62066,175.42192 936.73612,175.56866 936.82306,175.74668 C937.01258,176.16574 937.03811,176.684391 937.03811,177.136571 L937.03811,183.805191 C937.03811,183.912831 937.12551,184 937.23292,184 L940.86876,184 C940.97594,184 941.06311,183.912831 941.06311,183.805191 L941.06311,176.944291 C941.06311,175.1473 940.85358,174.134611 939.61066,172.88456 L939.61066,172.88456 Z M952.163538,174.48674 C949.394568,173.20909 948.969068,173.01267 948.969068,172.31899 C948.969068,171.57287 949.638598,171.12713 950.286048,171.12713 C950.985938,171.12713 951.306098,171.46017 951.472388,171.84634 C951.509418,171.93236 951.605558,171.97675 951.696638,171.95421 L955.106158,171.10344 C955.205518,171.078829 955.268078,170.980619 955.251058,170.879649 C954.964478,169.173049 953.506738,168.354249 952.826858,168.060309 C951.864768,167.657809 950.919698,167.592489 950.412778,167.592489 C947.735348,167.592489 944.890018,169.339799 944.890018,172.57866 C944.890018,175.61926 947.689578,176.77731 948.743208,177.21316 L948.930198,177.2932 C951.169938,178.257359 951.772078,178.51657 951.772078,179.295579 C951.772078,180.00398 951.212028,180.7685 950.307438,180.7685 C950.105727,180.7685 949.181588,180.7041 948.853148,179.56422 C948.825088,179.46601 948.726878,179.40437 948.626368,179.42553 L944.953958,180.18637 C944.845398,180.20891 944.778468,180.31747 944.804688,180.425109 C945.118868,181.7161 945.749528,182.5119 946.174798,182.92383 C947.154598,183.83877 948.557138,184.30222 950.349298,184.30222 C952.505318,184.30222 954.058278,183.63085 954.965168,182.306049 C955.736128,181.17951 955.851128,179.82803 955.851128,179.12262 C955.851128,177.00639 954.817278,175.70666 952.163538,174.48674 L952.163538,174.48674 Z M963.63761,171.61496 C962.50532,171.61496 961.40201,171.90499 960.4252,172.45722 C960.35988,172.49402 960.27915,172.44825 960.27915,172.37327 L960.27915,172.00159 C960.27915,171.89418 960.19221,171.80701 960.084571,171.80701 L956.677811,171.80701 C956.570171,171.80701 956.483001,171.89418 956.483001,172.00159 L956.483001,187.83571 C956.483001,187.94312 956.570171,188.03029 956.677811,188.03029 L960.084571,188.03029 C960.19221,188.03029 960.27915,187.94312 960.27915,187.83571 L960.27915,183.62418 C960.27915,183.54897 960.35988,183.5032 960.4252,183.54 C961.40201,184.09223 962.50509,184.38249 963.637611,184.38249 C967.20675,184.38249 970.1105,181.51853 970.1105,177.99861 C970.1105,174.47869 967.20675,171.61496 963.637611,171.61496 L963.63761,171.61496 Z M963.053411,180.92651 C961.416501,180.92651 960.279381,179.61321 960.279381,177.99861 C960.279381,176.38424 961.416501,175.07094 963.053411,175.07094 C964.69055,175.07094 966.02225,176.38424 966.02225,177.99861 C966.02225,179.61321 964.69055,180.92651 963.053411,180.92651 Z M976.77912,171.61496 C973.20975,171.61496 970.306,174.47869 970.306,177.99861 C970.306,181.51853 973.20975,184.38249 976.77912,184.38249 C980.34849,184.38249 983.25224,181.51853 983.25224,177.99861 C983.25224,174.47869 980.34849,171.61496 976.77912,171.61496 Z M976.77912,180.78184 C975.22317,180.78184 973.95725,179.5334 973.95725,177.99861 C973.95725,176.46405 975.22317,175.21561 976.77912,175.21561 C978.3353,175.21561 979.60122,176.46428 979.60122,177.99861 C979.60122,179.5334 978.3353,180.78184 976.77912,180.78184 Z M990.53151,180.82991 L989.86888,180.82991 C989.50755,180.82991 989.23615,180.74021 989.06204,180.56265 C988.764419,180.25974 988.78144,179.75213 988.793859,179.3816 L988.796389,179.29742 C988.797309,179.26683 988.797769,176.27614 988.797999,175.26391 C988.797999,175.15627 988.885169,175.07002 988.992809,175.07002 L990.258269,175.07002 C990.365449,175.07002 990.452849,174.98262 990.452849,174.87521 L990.452849,171.99078 C990.452849,171.8836 990.365449,171.7962 990.258269,171.7962 L988.992809,171.7962 C988.885169,171.7962 988.797999,171.70903 988.797999,171.60139 L988.797999,168.25719 C988.797999,168.14978 988.710829,168.06238 988.603419,168.06238 L985.19666,168.06238 C985.08902,168.06238 985.00185,168.14978 985.00185,168.25719 L985.00185,171.60139 C985.00185,171.70903 984.91445,171.7962 984.80704,171.7962 L983.54181,171.7962 C983.43417,171.7962 983.347,171.8836 983.347,171.99078 L983.347,174.87521 C983.347,174.98285 983.43417,175.07002 983.54181,175.07002 L984.80704,175.07002 C984.91445,175.07002 985.00185,175.15719 985.00185,175.2646 L985.00185,181.1181 C985.00185,183.019049 986.09619,184.081189 988.16619,184.189749 C988.18252,184.190669 988.2046,184.191129 988.23197,184.191129 C988.57191,184.191129 989.68902,184.127649 990.10693,184.103039 C990.198701,184.097519 990.274141,184.028749 990.28771,183.937669 L990.72402,181.053929 C990.74196,180.936399 990.65065,180.829909 990.531511,180.829909 L990.53151,180.82991 Z M994.99857,171.80839 L991.59181,171.80839 C991.48417,171.80839 991.397,171.89579 991.397,172.0032 L991.397,183.80519 C991.397,183.91283 991.48417,184 991.59181,184 L994.99857,184 C995.10621,184 995.19315,183.91283 995.19315,183.80519 L995.19315,172.0032 C995.19315,171.89556 995.10621,171.80839 994.99857,171.80839 L994.99857,171.80839 Z M994.99857,167.96877 L991.59181,167.96877 C991.48417,167.96877 991.397,168.05571 991.397,168.16335 L991.397,170.6508 C991.397,170.75844 991.48417,170.845609 991.59181,170.845609 L994.99857,170.845609 C995.10621,170.845609 995.19315,170.75844 995.19315,170.6508 L995.19315,168.16335 C995.19315,168.05571 995.10621,167.96877 994.99857,167.96877 Z M1006.37084,171.808389 C1006.45249,171.808389 1006.5254,171.85922 1006.55369,171.93558 L1006.55369,171.93558 L1008.77572,177.94272 C1008.83943,178.11476 1009.08346,178.11154 1009.14257,177.93812 L1009.14257,177.93812 L1011.19049,171.94041 C1011.21763,171.86152 1011.29169,171.808389 1011.37495,171.808389 L1011.37495,171.808389 L1014.96272,171.808389 C1015.0975,171.808389 1015.19157,171.94225 1015.1458,172.06921 L1015.1458,172.06921 L1011.30871,182.73316 L1009.5223,187.80604 C1009.49493,187.88378 1009.42133,187.93576 1009.33876,187.93576 L1009.33876,187.93576 L1005.5525,187.93576 C1005.41933,187.93576 1005.32526,187.80512 1005.36804,187.67885 L1005.36804,187.67885 L1006.85154,183.28401 C1006.86557,183.241919 1006.86511,183.19638 1006.84993,183.154519 L1006.84993,183.154519 L1002.79411,172.07013 C1002.74742,171.94294 1002.84149,171.808389 1002.97696,171.808389 L1002.97696,171.808389 Z M1000.60919,167.967849 C1000.87599,167.953819 1001.04734,167.967619 1001.05447,167.968079 L1001.05447,167.968079 L1002.98279,167.96785 C1003.09802,167.96785 1003.18795,168.06721 1003.17645,168.18198 L1003.17645,168.18198 L1002.90436,170.86447 C1002.89424,170.96406 1002.81052,171.0395 1002.7107,171.0395 L1002.7107,171.0395 L1002.31165,171.039499 C1001.97792,171.039499 1001.72032,171.129429 1001.54644,171.306529 C1001.25342,171.604839 1001.23709,172.158909 1001.2387,172.573829 C1001.23893,172.681009 1001.32587,172.767719 1001.43351,172.767719 L1001.43351,172.767719 L1002.70127,172.767719 C1002.80845,172.767719 1002.89585,172.854889 1002.89585,172.962299 L1002.89585,172.962299 L1002.89585,175.836609 C1002.89585,175.943789 1002.80845,176.031189 1002.70127,176.031189 L1002.70127,176.031189 L1001.43581,176.031189 C1001.32817,176.031189 1001.241,176.118359 1001.241,176.225769 L1001.241,176.225769 L1001.23617,183.805649 C1001.23617,183.912829 1001.14877,183.999999 1001.04136,183.999999 L1001.04136,183.999999 L997.63552,183.999999 C997.52765,183.999999 997.44025,183.912139 997.44094,183.804269 L997.44094,183.804269 L997.44485,183.134739 L997.44485,176.225999 C997.44485,176.118589 997.35745,176.031189 997.25004,176.031189 L997.25004,176.031189 L995.98481,176.031189 C995.877171,176.031189 995.790001,175.944019 995.790001,175.836609 L995.790001,175.836609 L995.790001,172.962299 C995.790001,172.854889 995.877171,172.767719 995.98481,172.767719 L995.98481,172.767719 L997.25004,172.767719 C997.35745,172.767719 997.44485,172.680549 997.44485,172.572909 L997.44485,172.572909 L997.44485,171.135639 C997.44485,168.426699 999.65768,168.017759 1000.60919,167.967849 Z M1022.34557,171.80839 L1018.93881,171.80839 C1018.83117,171.80839 1018.744,171.89579 1018.744,172.0032 L1018.744,183.80519 C1018.744,183.91283 1018.83117,184 1018.93881,184 L1022.34557,184 C1022.45321,184 1022.54015,183.91283 1022.54015,183.80519 L1022.54015,172.0032 C1022.54015,171.89556 1022.45321,171.80839 1022.34557,171.80839 L1022.34557,171.80839 Z M1022.34557,167.96877 L1018.93881,167.96877 C1018.83117,167.96877 1018.744,168.05571 1018.744,168.16335 L1018.744,170.6508 C1018.744,170.75844 1018.83117,170.845609 1018.93881,170.845609 L1022.34557,170.845609 C1022.45321,170.845609 1022.54015,170.75844 1022.54015,170.6508 L1022.54015,168.16335 C1022.54015,168.05571 1022.45321,167.96877 1022.34557,167.96877 Z M1033.28943,172.88456 L1033.2892,172.8841 C1033.20456,172.80015 1033.11187,172.71873 1033.01458,172.6426 C1032.98698,172.62029 1030.31392,170.522 1027.56795,172.41191 C1027.50378,172.45607 1027.41615,172.40938 1027.41615,172.33164 L1027.41615,172.0032 C1027.41615,171.89556 1027.32921,171.808391 1027.22157,171.808391 L1023.81481,171.808391 C1023.70717,171.808391 1023.62,171.89556 1023.62,172.0032 L1023.62,183.80519 C1023.62,183.91283 1023.70717,184.000001 1023.81481,184.000001 L1027.45065,184.000001 C1027.55783,184.000001 1027.64523,183.91283 1027.64523,183.80519 L1027.64523,177.13657 C1027.64523,176.67404 1027.64523,176.09881 1027.84257,175.67699 C1028.01507,175.28852 1028.55833,175.047481 1029.26006,175.047481 C1029.63772,175.047481 1029.93212,175.13396 1030.15982,175.312671 C1030.29966,175.421921 1030.41512,175.568661 1030.50206,175.746681 C1030.69158,176.165741 1030.71711,176.684391 1030.71711,177.136571 L1030.71711,183.805191 C1030.71711,183.912831 1030.80451,184.000001 1030.91192,184.000001 L1034.54753,184.000001 C1034.65494,184.000001 1034.74211,183.912831 1034.74211,183.805191 L1034.74211,176.944291 C1034.74211,175.147301 1034.53258,174.134611 1033.28943,172.884561 L1033.28943,172.88456 Z M1051.88792,171.80149 L1048.48116,171.80149 C1048.37352,171.80149 1048.28635,171.88889 1048.28635,171.9963 L1048.28635,172.36798 C1048.28635,172.44296 1048.20562,172.48873 1048.1403,172.4517 C1047.16372,171.89993 1046.06018,171.60967 1044.92812,171.60967 C1041.35875,171.60967 1038.455,174.47317 1038.455,177.99332 C1038.455,181.51347 1041.35875,184.3772 1044.92812,184.3772 C1046.06041,184.3772 1047.16395,184.08694 1048.1403,183.53471 C1048.20562,183.498141 1048.28635,183.54368 1048.28635,183.61866 L1048.28635,183.79829 C1048.28635,183.90593 1048.37352,183.9931 1048.48116,183.9931 L1051.88792,183.9931 C1051.99556,183.9931 1052.0825,183.90593 1052.0825,183.79829 L1052.0825,171.9963 C1052.0825,171.88889 1051.99556,171.80149 1051.88792,171.80149 L1051.88792,171.80149 Z M1045.51209,180.92122 C1043.87495,180.92122 1042.54325,179.60792 1042.54325,177.99355 C1042.54325,176.37895 1043.87495,175.06565 1045.51209,175.06565 C1047.14946,175.06565 1048.28612,176.37895 1048.28612,177.99355 C1048.28612,179.60792 1047.14946,180.92122 1045.51209,180.92122 Z M1062.82143,172.88456 L1062.8212,172.8841 C1062.73656,172.80015 1062.64387,172.71873 1062.54658,172.6426 C1062.51898,172.62029 1059.84592,170.522 1057.09995,172.41191 C1057.03578,172.45607 1056.94815,172.40938 1056.94815,172.33164 L1056.94815,172.0032 C1056.94815,171.89556 1056.86121,171.808391 1056.75357,171.808391 L1053.34681,171.808391 C1053.23917,171.808391 1053.152,171.89556 1053.152,172.0032 L1053.152,183.80519 C1053.152,183.91283 1053.23917,184.000001 1053.34681,184.000001 L1056.98265,184.000001 C1057.08983,184.000001 1057.17723,183.91283 1057.17723,183.80519 L1057.17723,177.13657 C1057.17723,176.67404 1057.17723,176.09881 1057.37457,175.67699 C1057.54707,175.28852 1058.09033,175.047481 1058.79206,175.047481 C1059.16972,175.047481 1059.46412,175.13396 1059.69182,175.312671 C1059.83166,175.421921 1059.94712,175.568661 1060.03406,175.746681 C1060.22358,176.165741 1060.24911,176.684391 1060.24911,177.136571 L1060.24911,183.805191 C1060.24911,183.912831 1060.33651,184.000001 1060.44392,184.000001 L1064.07953,184.000001 C1064.18694,184.000001 1064.27411,183.912831 1064.27411,183.805191 L1064.27411,176.944291 C1064.27411,175.147301 1064.06458,174.134611 1062.82143,172.884561 L1062.82143,172.88456 Z M1076.67172,171.808389 L1073.08395,171.808389 C1073.00069,171.808389 1072.92663,171.86152 1072.89949,171.94041 L1070.85157,177.93812 C1070.79246,178.11154 1070.54843,178.11476 1070.48472,177.94272 L1068.26269,171.93558 C1068.2344,171.85922 1068.16149,171.808389 1068.07984,171.808389 L1064.68596,171.808389 C1064.55049,171.808389 1064.45642,171.94294 1064.50311,172.07013 L1068.55893,183.154519 C1068.57411,183.19638 1068.57457,183.241919 1068.56054,183.28401 L1067.07704,187.67885 C1067.03426,187.80512 1067.12833,187.93576 1067.2615,187.93576 L1071.04776,187.93576 C1071.13033,187.93576 1071.20393,187.88378 1071.2313,187.80604 L1073.01771,182.73316 L1076.8548,172.06921 C1076.90057,171.94225 1076.8065,171.808389 1076.67172,171.808389 L1076.67172,171.808389 Z M1103.73912,171.60967 C1104.87118,171.60967 1105.97472,171.89993 1106.9513,172.4517 C1107.01662,172.48873 1107.09735,172.44296 1107.09735,172.36798 L1107.09735,172.36798 L1107.09735,171.9963 C1107.09735,171.88889 1107.18452,171.80149 1107.29216,171.80149 L1107.29216,171.80149 L1110.69892,171.80149 C1110.80656,171.80149 1110.8935,171.88889 1110.8935,171.9963 L1110.8935,171.9963 L1110.8935,183.79829 C1110.8935,183.90593 1110.80656,183.9931 1110.69892,183.9931 L1110.69892,183.9931 L1107.29216,183.9931 C1107.18452,183.9931 1107.09735,183.90593 1107.09735,183.79829 L1107.09735,183.79829 L1107.09735,183.61866 C1107.09735,183.54368 1107.01662,183.498141 1106.9513,183.53471 C1105.97495,184.08694 1104.87141,184.3772 1103.73912,184.3772 C1100.16975,184.3772 1097.266,181.51347 1097.266,177.99332 C1097.266,174.47317 1100.16975,171.60967 1103.73912,171.60967 Z M1083.39892,171.80846 C1083.49129,171.80846 1083.57102,171.873386 1083.58961,171.963912 L1083.58961,171.963912 L1084.8231,177.954128 C1084.86272,178.146959 1085.13089,178.165746 1085.19708,177.980313 L1085.19708,177.980313 L1087.35395,171.937728 C1087.38159,171.860245 1087.45499,171.80846 1087.53724,171.80846 L1087.53724,171.80846 L1089.54215,171.80846 C1089.6245,171.80846 1089.6979,171.860245 1089.72554,171.937728 L1089.72554,171.937728 L1091.90908,178.055168 C1091.96777,178.219478 1092.20528,178.202833 1092.24042,178.032001 L1092.24042,178.032001 L1093.48988,171.963913 C1093.50847,171.873387 1093.58819,171.80846 1093.68057,171.80846 L1093.68057,171.80846 L1097.0757,171.80846 C1097.2037,171.80846 1097.29685,171.929843 1097.26376,172.053465 L1097.26376,172.053465 L1094.10468,183.855667 C1094.0819,183.940742 1094.00471,183.999925 1093.91662,183.999925 L1093.91662,183.999925 L1090.36039,183.999925 C1090.27814,183.999925 1090.20465,183.94814 1090.17701,183.870657 L1090.17701,183.870657 L1088.72323,179.797848 C1088.66171,179.625556 1088.41807,179.625556 1088.35655,179.797848 L1088.35655,179.797848 L1086.90277,183.870657 C1086.87513,183.94814 1086.80173,183.999925 1086.71939,183.999925 L1086.71939,183.999925 L1083.16316,183.999925 C1083.07497,183.999925 1082.99788,183.94084 1082.9751,183.855667 L1082.9751,183.855667 L1079.81573,172.053465 C1079.78263,171.929843 1079.87579,171.80846 1080.00379,171.80846 L1080.00379,171.80846 Z M1104.32309,175.06565 C1102.68595,175.06565 1101.35425,176.37895 1101.35425,177.99355 C1101.35425,179.60792 1102.68595,180.92122 1104.32309,180.92122 C1105.96046,180.92122 1107.09712,179.60792 1107.09712,177.99355 C1107.09712,176.37895 1105.96046,175.06565 1104.32309,175.06565 Z M1123.43072,171.808389 L1119.84295,171.808389 C1119.75969,171.808389 1119.68563,171.86152 1119.65849,171.94041 L1117.61057,177.93812 C1117.55146,178.11154 1117.30743,178.11476 1117.24372,177.94272 L1115.02169,171.93558 C1114.9934,171.85922 1114.92049,171.808389 1114.83884,171.808389 L1111.44496,171.808389 C1111.30949,171.808389 1111.21542,171.94294 1111.26211,172.07013 L1115.31793,183.154519 C1115.33311,183.19638 1115.33357,183.241919 1115.31954,183.28401 L1113.83604,187.67885 C1113.79326,187.80512 1113.88733,187.93576 1114.0205,187.93576 L1117.80676,187.93576 C1117.88933,187.93576 1117.96293,187.88378 1117.9903,187.80604 L1119.77671,182.73316 L1123.6138,172.06921 C1123.65957,171.94225 1123.5655,171.808389 1123.43072,171.808389 L1123.43072,171.808389 Z M237.074386,61.3025208 C218.534326,52.7478203 215.685326,51.4326613 215.685326,46.7880208 C215.685326,41.7922604 220.168266,38.8077396 224.503365,38.8077396 C229.189584,38.8077396 231.333264,41.037659 232.446683,43.6233179 C232.694623,44.1992788 233.338342,44.4964977 233.948183,44.3455783 L256.777144,38.6491175 C257.442425,38.4843363 257.861305,37.8267557 257.747344,37.1506958 C255.828503,25.7238962 246.067983,20.2414953 241.515743,18.2733755 C235.073923,15.5783755 228.746063,15.1410161 225.351904,15.1410161 C207.424764,15.1410161 188.373423,26.8403962 188.373423,48.5266774 C188.373423,68.8854769 207.118303,76.6393778 214.173043,79.5576774 L215.425063,80.0935967 C230.421584,86.5492764 234.453303,88.2848571 234.453303,93.5008363 C234.453303,98.2440368 230.703402,103.362998 224.646582,103.362998 C223.296001,103.362998 217.108282,102.931797 214.909162,95.2995576 C214.721282,94.6419769 214.063702,94.229258 213.390722,94.3709377 L188.801543,99.465258 C188.074662,99.6161774 187.626522,100.343058 187.802082,101.063776 C189.905722,109.707797 194.128402,115.036198 196.975863,117.794339 C203.536264,123.920458 212.927183,127.023558 224.926863,127.023558 C239.362824,127.023558 249.760904,122.528297 255.833123,113.657896 C260.995204,106.114977 261.765204,97.0659377 261.765204,92.342758 C261.765204,78.1732189 254.842904,69.4706797 237.074384,61.3025208 L237.074386,61.3025208 Z M313.900781,42.0740807 C306.319362,42.0740807 298.931982,44.0160208 292.391601,47.7135599 C291.954242,47.9599608 291.413703,47.6535 291.413703,47.1514608 L291.413703,44.6628203 C291.413703,43.9436406 290.831583,43.3599816 290.110864,43.3599816 L267.300385,43.3599816 C266.579666,43.3599816 265.996007,43.9436406 265.996007,44.6628203 L265.996007,150.682581 C265.996007,151.40176 266.579666,151.985419 267.300385,151.985419 L290.110864,151.985419 C290.831583,151.985419 291.413703,151.40176 291.413703,150.682581 L291.413703,122.483641 C291.413703,121.98006 291.954242,121.673599 292.391601,121.92 C298.931982,125.617539 306.317823,127.561018 313.900783,127.561018 C337.798502,127.561018 357.241002,108.384938 357.241002,84.8167788 C357.241002,61.2486198 337.798502,42.0740807 313.900783,42.0740807 L313.900781,42.0740807 Z M309.989184,104.420982 C299.029005,104.420982 291.415244,95.6275807 291.415244,84.8167811 C291.415244,74.0075208 299.029005,65.2141198 309.989184,65.2141198 C320.950903,65.2141198 329.867502,74.0075208 329.867502,84.8167811 C329.867502,95.6275807 320.950903,104.420982 309.989184,104.420982 Z M401.89176,42.0740807 C377.9925,42.0740807 358.55,61.2486198 358.55,84.8167788 C358.55,108.384938 377.9925,127.561018 401.89176,127.561018 C425.791021,127.561018 445.233521,108.384938 445.233521,84.8167788 C445.233521,61.2486198 425.791021,42.0740807 401.89176,42.0740807 Z M401.89176,103.45232 C391.473661,103.45232 382.997502,95.0932005 382.997502,84.8167811 C382.997502,74.5419009 391.473661,66.1827811 401.89176,66.1827811 C412.311401,66.1827811 420.78756,74.5434401 420.78756,84.8167811 C420.78756,95.0932005 412.311401,103.45232 401.89176,103.45232 Z M493.972979,103.77418 L489.53624,103.77418 C487.116899,103.77418 485.299698,103.173581 484.133917,101.9847 C482.141157,99.9565208 482.255117,96.5577396 482.338276,94.0767995 L482.355217,93.513159 C482.361375,93.3083387 482.364456,73.2837189 482.365995,66.5061797 C482.365995,65.7854608 482.949654,65.2079608 483.670373,65.2079608 L492.143454,65.2079608 C492.861094,65.2079608 493.446295,64.6227604 493.446295,63.9035807 L493.446295,44.5904401 C493.446295,43.8727995 492.861094,43.2875991 492.143454,43.2875991 L483.670373,43.2875991 C482.949654,43.2875991 482.365995,42.7039401 482.365995,41.9832212 L482.365995,19.5916222 C482.365995,18.8724424 481.782336,18.287242 481.063157,18.287242 L458.252677,18.287242 C457.531958,18.287242 456.9483,18.8724424 456.9483,19.5916222 L456.9483,41.9832212 C456.9483,42.7039401 456.363099,43.2875991 455.643919,43.2875991 L447.17238,43.2875991 C446.451661,43.2875991 445.868002,43.8727995 445.868002,44.5904401 L445.868002,63.9035807 C445.868002,64.6242995 446.451661,65.2079585 447.17238,65.2079585 L455.643919,65.2079585 C456.363099,65.2079585 456.9483,65.7916175 456.9483,66.5107972 L456.9483,105.703797 C456.9483,118.431896 464.27562,125.543615 478.13562,126.270495 C478.244961,126.276654 478.392802,126.279735 478.576062,126.279735 C480.852182,126.279735 488.331963,125.854696 491.130143,125.689915 C491.744604,125.652954 492.249724,125.192493 492.340583,124.582652 L495.261963,105.274131 C495.382083,104.487191 494.770703,103.77417 493.972984,103.77417 L493.972979,103.77418 Z M523.882859,43.3692189 L501.07238,43.3692189 C500.351661,43.3692189 499.768002,43.9544193 499.768002,44.6735991 L499.768002,123.69562 C499.768002,124.416339 500.351661,124.999998 501.07238,124.999998 L523.882859,124.999998 C524.603578,124.999998 525.185698,124.416339 525.185698,123.69562 L525.185698,44.6735991 C525.185698,43.9528802 524.603578,43.3692189 523.882859,43.3692189 L523.882859,43.3692189 Z M523.882859,17.6604608 L501.07238,17.6604608 C500.351661,17.6604608 499.768002,18.2425807 499.768002,18.9632995 L499.768002,35.6183986 C499.768002,36.3391175 500.351661,36.9227764 501.07238,36.9227764 L523.882859,36.9227764 C524.603578,36.9227764 525.185698,36.3391175 525.185698,35.6183986 L525.185698,18.9632995 C525.185698,18.2425807 524.603578,17.6604608 523.882859,17.6604608 Z M600.027651,43.3692165 C600.574352,43.3692165 601.062532,43.7095576 601.251951,44.2208387 L601.251951,44.2208387 L616.129891,84.4425576 C616.556472,85.5944769 618.190412,85.572917 618.586193,84.411758 L618.586193,84.411758 L632.298352,44.2531774 C632.480071,43.7249585 632.975951,43.3692165 633.53343,43.3692165 L633.53343,43.3692165 L657.555891,43.3692165 C658.458331,43.3692165 659.088191,44.2654977 658.78173,45.1155783 L658.78173,45.1155783 L633.089909,116.517677 L621.12873,150.483917 C620.945469,151.004438 620.45267,151.352477 619.89981,151.352477 L619.89981,151.352477 L594.548331,151.352477 C593.656672,151.352477 593.026813,150.477758 593.313253,149.632297 L593.313253,149.632297 L603.246253,120.205977 C603.340193,119.924157 603.337112,119.619237 603.235472,119.338956 L603.235472,119.338956 L576.079112,45.1217373 C575.766492,44.2701175 576.396352,43.3692165 577.303412,43.3692165 L577.303412,43.3692165 Z M561.449622,17.6542948 C563.236023,17.5603547 564.383323,17.6527557 564.431062,17.6558363 L564.431062,17.6558363 L577.342422,17.6542972 C578.113961,17.6542972 578.716101,18.3195783 578.639101,19.0880392 L578.639101,19.0880392 L576.817281,37.0490599 C576.749521,37.7158802 576.188961,38.221 575.520601,38.221 L575.520601,38.221 L572.848705,38.2209953 C570.614166,38.2209953 568.889366,38.8231359 567.725127,40.0089354 C565.763166,42.0063156 565.653825,45.716175 565.664606,48.494334 C565.666145,49.2119745 566.248265,49.7925552 566.968984,49.7925552 L566.968984,49.7925552 L575.457463,49.7925552 C576.175104,49.7925552 576.760304,50.3762142 576.760304,51.0953939 L576.760304,51.0953939 L576.760304,70.3407741 C576.760304,71.0584146 576.175104,71.6436151 575.457463,71.6436151 L575.457463,71.6436151 L566.984383,71.6436151 C566.263664,71.6436151 565.680005,72.2272741 565.680005,72.9464538 L565.680005,72.9464538 L565.647664,123.698693 C565.647664,124.416334 565.062463,124.999993 564.343283,124.999993 L564.343283,124.999993 L541.538963,124.999993 C540.816703,124.999993 540.231502,124.411712 540.236122,123.689451 L540.236122,123.689451 L540.262302,119.206511 L540.262302,72.9479906 C540.262302,72.2288109 539.677101,71.6436104 538.957922,71.6436104 L538.957922,71.6436104 L530.486383,71.6436104 C529.765664,71.6436104 529.182005,71.0599514 529.182005,70.3407717 L529.182005,70.3407717 L529.182005,51.0953915 C529.182005,50.3762118 529.765664,49.7925529 530.486383,49.7925529 L530.486383,49.7925529 L538.957922,49.7925529 C539.677101,49.7925529 540.262302,49.2088939 540.262302,48.488175 L540.262302,48.488175 L540.262302,38.8647142 C540.262302,20.7265944 555.078643,17.9884745 561.449622,17.6542948 Z M745.374901,87.7058203 C745.113101,87.1052212 745.336401,86.4060623 745.8985,86.0672627 C747.7157,84.9707835 749.492859,83.6587028 751.49332,81.9354424 C758.169221,76.1234816 762.6537,64.718242 762.6537,53.5609424 C762.6537,42.0402028 758.118401,31.5897627 750.2105,24.8907627 C744.44012,20.0182028 736.99576,16.9998019 717.75962,16.9998019 L684.48638,16.9998019 C683.765661,16.9998019 683.182002,17.5850023 683.182002,18.3026429 L683.182002,123.529302 C683.182002,124.250021 683.765661,124.83368 684.48638,124.83368 L709.33274,124.83368 C710.051919,124.83368 710.634039,124.250021 710.634039,123.529302 L710.634039,92.5845415 C710.634039,91.8653618 711.21924,91.283242 711.938419,91.283242 L716.25812,91.283242 C716.77556,91.283242 717.243719,91.5897028 717.45162,92.0624839 L731.556479,124.384005 C731.76438,124.859864 732.232539,125.166325 732.749979,125.166325 L759.730779,125.166325 C760.67018,125.166325 761.301581,124.202286 760.92582,123.341426 L745.374901,87.7058203 Z M730.20282,64.8984264 C726.73474,66.4615255 722.532081,66.4615255 720.02188,66.4615255 L711.939961,66.4615255 C711.219242,66.4615255 710.635583,65.876325 710.635583,65.1571453 L710.635583,43.1243641 C710.635583,42.4051844 711.219242,41.8215255 711.939961,41.8215255 L719.03012,41.8215255 C721.92994,41.8215255 726.31124,41.8215255 729.924081,43.3830854 C734.234542,45.2511061 736.330482,48.7222651 736.330482,53.9936844 C736.330482,57.7097052 735.266341,62.6176844 730.20282,64.898424 L730.20282,64.8984264 Z M791.226859,43.3692189 L768.41638,43.3692189 C767.695661,43.3692189 767.112002,43.9544193 767.112002,44.6735991 L767.112002,123.69562 C767.112002,124.416339 767.695661,124.999998 768.41638,124.999998 L791.226859,124.999998 C791.947578,124.999998 792.529698,124.416339 792.529698,123.69562 L792.529698,44.6735991 C792.529698,43.9528802 791.947578,43.3692189 791.226859,43.3692189 L791.226859,43.3692189 Z M791.226859,17.6604608 L768.41638,17.6604608 C767.695661,17.6604608 767.112002,18.2425807 767.112002,18.9632995 L767.112002,35.6183986 C767.112002,36.3391175 767.695661,36.9227764 768.41638,36.9227764 L791.226859,36.9227764 C791.947578,36.9227764 792.529698,36.3391175 792.529698,35.6183986 L792.529698,18.9632995 C792.529698,18.2425807 791.947578,17.6604608 791.226859,17.6604608 Z M847.664781,42.0740807 C840.083362,42.0740807 832.695982,44.0160208 826.155601,47.7135599 C825.718242,47.9599608 825.177703,47.6535 825.177703,47.1514608 L825.177703,44.6628203 C825.177703,43.9436406 824.595583,43.3599816 823.874864,43.3599816 L801.064385,43.3599816 C800.343666,43.3599816 799.760007,43.9436406 799.760007,44.6628203 L799.760007,150.682581 C799.760007,151.40176 800.343666,151.985419 801.064385,151.985419 L823.874864,151.985419 C824.595583,151.985419 825.177703,151.40176 825.177703,150.682581 L825.177703,122.483641 C825.177703,121.98006 825.718242,121.673599 826.155601,121.92 C832.695982,125.617539 840.081823,127.561018 847.664783,127.561018 C871.562502,127.561018 891.005002,108.384938 891.005002,84.8167788 C891.005002,61.2486198 871.562502,42.0740807 847.664783,42.0740807 L847.664781,42.0740807 Z M843.753184,104.420982 C832.793005,104.420982 825.179244,95.6275807 825.179244,84.8167811 C825.179244,74.0075208 832.793005,65.2141198 843.753184,65.2141198 C854.714903,65.2141198 863.631502,74.0075208 863.631502,84.8167811 C863.631502,95.6275807 854.714903,104.420982 843.753184,104.420982 Z M943.144781,42.0740807 C935.563362,42.0740807 928.175982,44.0160208 921.635601,47.7135599 C921.198242,47.9599608 920.657703,47.6535 920.657703,47.1514608 L920.657703,44.6628203 C920.657703,43.9436406 920.075583,43.3599816 919.354864,43.3599816 L896.544385,43.3599816 C895.823666,43.3599816 895.240007,43.9436406 895.240007,44.6628203 L895.240007,150.682581 C895.240007,151.40176 895.823666,151.985419 896.544385,151.985419 L919.354864,151.985419 C920.075583,151.985419 920.657703,151.40176 920.657703,150.682581 L920.657703,122.483641 C920.657703,121.98006 921.198242,121.673599 921.635601,121.92 C928.175982,125.617539 935.561823,127.561018 943.144783,127.561018 C967.042502,127.561018 986.485002,108.384938 986.485002,84.8167788 C986.485002,61.2486198 967.042502,42.0740807 943.144783,42.0740807 L943.144781,42.0740807 Z M939.233184,104.420982 C928.273005,104.420982 920.659244,95.6275807 920.659244,84.8167811 C920.659244,74.0075208 928.273005,65.2141198 939.233184,65.2141198 C950.194903,65.2141198 959.111502,74.0075208 959.111502,84.8167811 C959.111502,95.6275807 950.194903,104.420982 939.233184,104.420982 Z M1072.71114,72.7447189 C1071.79946,69.6801198 1070.51972,66.6986797 1068.90426,63.8758594 L1068.91658,63.8697005 L1068.11578,62.5452995 C1067.91866,62.2265184 1067.71538,61.9108179 1067.51056,61.596659 L1067.04394,60.8913387 C1066.80678,60.5309792 1066.55576,60.1798594 1066.2955,59.8364401 L1066.2493,59.7763802 C1065.9336,59.3451797 1065.60866,58.9232189 1065.27602,58.5074193 L1065.00498,58.1717005 C1064.72162,57.8221198 1064.43518,57.477159 1064.14258,57.1383594 L1063.9162,56.8734792 L1063.4234,57.2938986 L1063.8469,56.7964792 C1063.39106,56.2805783 1062.90288,55.7523594 1062.35618,55.1902604 L1062.09438,54.923841 C1061.75404,54.5819608 1061.40908,54.246242 1061.0595,53.9166821 L1060.94862,53.8088825 C1060.51588,53.3961637 1060.07236,52.9973042 1059.61498,52.6123042 L1059.26848,52.3197052 C1058.66172,51.8068849 1058.0873,51.3448849 1057.4944,50.8967443 C1057.3558,50.7904839 1057.2172,50.6888434 1057.07552,50.5872028 L1056.96002,50.5009632 C1056.27164,49.9973825 1055.56016,49.5061222 1054.8071,49.0179424 L1054.71624,48.9625023 C1054.00168,48.5112835 1052.81588,47.8059632 1052.07822,47.3963226 C1051.88264,47.2869816 1051.68552,47.1822627 1051.47916,47.0744632 L1051.14036,47.6257835 L1051.4114,47.0390439 L1051.29744,46.9805231 C1050.96326,46.8080439 1050.62908,46.6371038 1050.25794,46.4553849 L1050.06698,46.3660646 C1049.31392,46.0041637 1048.57318,45.6730646 1047.87094,45.3820047 L1047.65534,45.2957651 C1047.22568,45.1217443 1046.79448,44.9523434 1046.30322,44.769083 C1046.13998,44.7090231 1045.97674,44.6505023 1045.81504,44.5950623 C1045.28374,44.4056429 1044.7509,44.2254632 1044.18264,44.0468226 L1044.0887,44.0175623 C1043.52968,43.845083 1042.91984,43.6726038 1042.22684,43.492424 L1041.694,43.3569033 C1040.48048,43.0566038 1039.2377,42.8071245 1038.00108,42.6130854 L1037.4821,42.5345462 C1036.21006,42.3512858 1034.90876,42.2203849 1033.5936,42.1464655 L1033.1162,42.121825 C1032.36314,42.0894839 1031.73328,42.074083 1031.1373,42.074083 C1030.53208,42.074083 1029.87604,42.0894839 1029.1276,42.1233641 C1028.96898,42.1310646 1028.81036,42.1418457 1028.65328,42.1495462 L1028.53624,42.1587858 C1028.04498,42.1865047 1027.55526,42.2234655 1027.07016,42.2665854 L1026.9177,42.2804448 C1026.77448,42.2943042 1026.62972,42.3081637 1026.48804,42.3220231 C1025.7781,42.3974839 1025.1544,42.4744839 1024.5846,42.5591844 L1024.56458,42.5622651 C1024.55688,42.5638042 1024.5461,42.5653434 1024.53686,42.5653434 L1024.43522,42.5807443 C1023.86696,42.6685255 1022.93988,42.8363849 1022.37778,42.953424 L1022.04976,43.0211844 C1021.5816,43.1212835 1021.11652,43.2260023 1020.65144,43.3399632 L1020.50668,43.3753825 C1020.36962,43.4092627 1020.2341,43.4416038 1020.10012,43.4754839 C1019.47642,43.6371844 1018.86042,43.8065854 1018.24288,43.9960047 C1017.63458,44.1823457 1017.03244,44.387166 1016.43492,44.5996868 C1016.2994,44.6474264 1016.16388,44.6967075 1016.02836,44.749067 L1015.90362,44.7952674 C1015.46318,44.958507 1015.02736,45.127908 1014.59308,45.305007 L1014.47296,45.3527467 C1014.33898,45.4081868 1014.205,45.4620877 1014.07102,45.5175278 C1013.49198,45.7623872 1012.91756,46.0164863 1012.34006,46.2906061 C1011.77334,46.5601061 1011.2174,46.845007 1010.66454,47.136067 C1010.5321,47.2053665 1010.40428,47.2777467 1010.27492,47.3470462 L1010.1702,47.4040255 C1009.76364,47.627325 1009.36324,47.8537052 1008.96284,48.089325 L1008.48236,48.3742259 C1007.95106,48.6960854 1007.42438,49.0256453 1006.90848,49.3690646 C1001.74024,52.809424 997.298883,57.4047835 994.066422,62.6561844 C993.741482,63.1828641 993.430401,63.720325 993.12856,64.2624056 L992.7528,64.9538665 C992.67888,65.0878457 992.6065,65.221825 992.535659,65.3573457 C992.466359,65.4867052 992.40168,65.6191453 992.338539,65.7515854 L992.176839,66.0765255 C992.11062,66.2089655 992.044401,66.3414056 991.98126,66.4738457 C991.710221,67.0344056 991.448422,67.6011245 991.200482,68.1755439 C990.773901,69.1703849 990.371961,70.2376038 989.973101,71.4326429 C988.758042,75.0655023 988.045021,78.8292627 987.850982,82.6161222 C987.812482,83.3414632 987.794002,84.0806637 987.794002,84.8167835 C987.794002,85.5498226 987.812482,86.2905623 987.850982,87.0159033 C987.960323,89.1703641 988.239062,91.3294448 988.673343,93.4300047 C988.819643,94.1322443 988.982883,94.8267835 989.158442,95.4966844 C989.372502,96.3175047 989.631221,97.1752858 989.973101,98.1993849 C990.584482,100.033525 991.312901,101.809145 992.132182,103.472346 C992.199942,103.606325 992.267703,103.738765 992.338544,103.871205 L992.464825,104.114525 C992.692744,104.556505 992.923744,105.000025 993.165525,105.432765 L993.276406,105.642205 C993.532046,106.091885 993.795387,106.535406 994.066426,106.974307 C997.298887,112.227247 1001.74025,116.821067 1006.90849,120.261426 C1007.42439,120.606387 1007.95107,120.935947 1008.48237,121.257807 L1008.96285,121.542708 C1009.36017,121.776788 1009.76365,122.004708 1010.16867,122.226468 L1010.27338,122.283447 C1010.40274,122.354288 1010.5321,122.425129 1010.66146,122.494429 C1011.21432,122.787028 1011.7718,123.071929 1012.28616,123.31371 L1012.34776,123.346051 C1012.91602,123.614012 1013.49044,123.868111 1014.06948,124.11297 C1014.20346,124.169949 1014.33744,124.22539 1014.47142,124.277749 L1014.59154,124.32703 C1015.02428,124.504129 1015.46164,124.671989 1015.90054,124.835228 L1016.00834,124.876809 C1016.14848,124.929168 1016.2917,124.981528 1016.43184,125.032348 C1017.02936,125.244869 1017.6315,125.449689 1018.24904,125.637569 C1018.80036,125.808509 1019.40558,125.976369 1020.09396,126.155009 C1020.22948,126.190429 1020.36654,126.22277 1020.50206,126.255111 L1020.6499,126.292072 C1021.11344,126.404491 1021.58006,126.510751 1022.04822,126.61085 L1022.61186,126.72789 C1023.13392,126.835689 1023.65906,126.931168 1024.18882,127.012788 L1024.53378,127.066689 C1024.54456,127.066689 1024.55226,127.068228 1024.56304,127.071309 L1024.58152,127.072848 C1025.15132,127.157549 1025.77656,127.234549 1026.48496,127.310009 C1026.62664,127.323869 1026.7714,127.337728 1026.91308,127.350049 L1027.06554,127.363908 C1027.55372,127.408567 1028.04344,127.445528 1028.5347,127.473247 L1028.681,127.484028 C1028.8273,127.493267 1028.97668,127.500968 1029.12606,127.508668 C1029.87296,127.542549 1030.529,127.557949 1031.13576,127.557949 C1031.73174,127.557949 1032.36006,127.542549 1033.13776,127.510208 L1033.61516,127.484028 C1034.90722,127.411648 1036.20852,127.282288 1037.52522,127.092869 L1037.99492,127.020489 C1039.23462,126.824908 1040.47894,126.575429 1041.7248,126.267429 L1042.21914,126.141148 C1042.9183,125.959429 1043.52968,125.786949 1044.11334,125.60677 L1044.21036,125.574429 C1044.75398,125.405028 1045.29144,125.223309 1045.82582,125.032348 L1046.35558,124.839848 C1046.79294,124.679689 1047.22568,124.508749 1047.71694,124.311629 L1047.86324,124.253108 C1048.58704,123.954348 1049.31392,123.627869 1050.087,123.255189 L1050.2872,123.161249 C1050.626,122.996468 1050.9648,122.825528 1051.34518,122.626869 L1051.48378,122.556028 C1051.68244,122.451309 1051.8811,122.345049 1052.07822,122.238788 L1052.31538,122.104809 C1053.13774,121.648968 1053.95086,121.162327 1054.75782,120.646426 L1054.95648,120.517067 C1055.65718,120.062767 1056.34556,119.585366 1057.01854,119.087947 L1057.50826,118.724507 C1058.08422,118.288687 1058.66018,117.828226 1059.2731,117.310786 L1058.84806,116.824145 L1059.34086,117.255346 L1059.77514,116.885747 C1060.17708,116.543866 1060.56824,116.189666 1060.94862,115.826226 L1061.05488,115.724585 C1061.406,115.391945 1061.75404,115.051604 1062.09592,114.708184 L1062.39006,114.409424 C1062.91828,113.867343 1063.39414,113.349903 1063.88232,112.800122 L1064.13796,112.501362 C1064.43364,112.156401 1064.72623,111.808362 1065.03115,111.431062 L1065.27294,111.130763 C1065.43156,110.932104 1065.58709,110.728823 1065.74109,110.525542 L1065.76265,110.5317 L1066.04139,110.15594 C1066.50493,109.533781 1066.97155,108.86388 1067.48283,108.08618 C1067.88939,107.46556 1068.23589,106.911159 1068.57161,106.34444 L1068.93505,105.746919 L1068.91811,105.73768 C1069.28001,105.0955 1069.90063,103.825 1070.39343,102.79782 C1070.76611,102.021661 1070.29641,101.105362 1069.44787,100.954442 L1047.55369,97.019742 C1047.07321,96.9335023 1046.59119,97.1306222 1046.28935,97.5171613 C1042.36697,102.534482 1036.85839,105.135542 1030.94941,105.135542 C1024.00093,105.135542 1017.71157,101.42876 1014.19729,95.4720415 C1013.68139,94.5988618 1014.30509,93.4916014 1015.31841,93.4916014 L1072.48937,93.4916014 C1073.12847,93.4916014 1073.67055,93.0326821 1073.77835,92.4028226 C1074.19877,89.9449816 1074.47751,87.1699009 1074.47751,84.815242 C1074.47597,80.7357811 1073.88307,76.6732604 1072.71113,72.7447212 L1072.71114,72.7447189 Z M1047.64763,75.5074816 L1016.58275,75.5074816 C1015.76655,75.5074816 1015.14593,74.7605807 1015.29685,73.9582396 C1016.43337,67.9337604 1024.07023,63.2752604 1032.11365,63.2752604 C1040.96249,63.2752604 1047.92175,67.9661014 1048.93661,73.9798019 C1049.07213,74.7775208 1048.45613,75.5074816 1047.64763,75.5074816 Z M1122.25294,43.3769193 C1116.86602,43.4462189 1110.46886,44.140758 1105.06192,47.505659 C1104.62918,47.7736198 1104.0717,47.461 1104.0717,46.9527995 L1104.0717,44.6735991 C1104.0717,43.9528802 1103.48958,43.3692212 1102.76886,43.3692212 L1079.95838,43.3692212 C1079.23767,43.3692212 1078.65401,43.9528802 1078.65401,44.6735991 L1078.65401,123.69562 C1078.65401,124.416339 1079.23767,124.999998 1079.95838,124.999998 L1104.30271,124.999998 C1105.02188,124.999998 1105.60554,124.416339 1105.60554,123.69562 L1105.60554,77.7574193 C1105.60554,74.5957995 1105.60554,72.0963802 1106.92686,69.2720208 C1107.4135,68.1755415 1109.11059,65.9148226 1112.04737,65.2064217 C1114.67923,64.5704009 1119.14061,64.8660807 1121.37669,65.0755208 C1122.11897,65.1432811 1122.76269,64.5765623 1122.79349,63.8296613 L1123.57119,44.7352005 C1123.60199,43.9852212 1123.00293,43.3661406 1122.25295,43.3769217 L1122.25294,43.3769193 Z M83.7525015,0.277 C37.6379791,0.277 0.253,37.6618749 0.253,83.7774986 C0.253,129.895116 37.6379791,167.277 83.7525015,167.277 C129.872009,167.277 167.253,129.895116 167.253,83.7774986 C167.253,37.6648662 129.872009,0.280988465 83.7515044,0.280988465 L83.7525015,0.277 Z M122.044835,120.708686 C120.549196,123.161591 117.338559,123.939342 114.885712,122.433697 C95.2808828,110.458332 70.6008539,107.746176 41.535613,114.386969 C38.7347807,115.025124 35.9429222,113.270199 35.3047831,110.468303 C34.6636528,107.666407 36.4115556,104.874482 39.2193675,104.236327 C71.0266123,96.9693449 98.3100492,100.098295 120.319865,113.549392 C122.772712,115.055037 123.550444,118.25578 122.044835,120.708686 L122.044835,120.708686 Z M132.265031,97.9724437 C130.380526,101.035584 126.372215,102.002787 123.311142,100.118238 C100.866594,86.3221389 66.6533654,82.3266946 40.1057826,90.3853871 C36.6628229,91.4253792 33.0264272,89.4849913 31.9814744,86.047932 C30.9444984,82.60489 32.8858372,78.9753873 36.3228144,77.9284154 C66.6473828,68.7270278 104.346446,73.1841368 130.121282,89.0233265 C133.182356,90.907876 134.149535,94.9162828 132.265031,97.9734408 L132.265031,97.9724437 Z M133.142472,74.2969184 C106.230951,58.3121498 61.8304299,56.8424007 36.1363581,64.6408459 C32.0103901,65.8922266 27.6471142,63.5629634 26.3967604,59.4368968 C25.1464067,55.3088361 27.4736201,50.9484473 31.6025794,49.6940752 C61.097567,40.7399724 110.129581,42.4699688 141.113228,60.86377 C144.832382,63.0663995 146.048835,67.8595367 143.845261,71.5658174 C141.651658,75.2770836 136.845673,76.5005451 133.14646,74.2969184 L133.142472,74.2969184 Z" id="Combined-Shape" fill="#1ED760" fill-rule="nonzero"></path>
    </g>
</svg>