<svg width="100%" height="100%" viewBox="0 0 1124 168" version="1.1" xmlns="http://www.w3.org/2000/svg">
    <g id="Page-1" stroke="none" stroke-width="1" fill="none" fill-rule="evenodd">
        <path d="M237.074386,61.3025208 C218.534326,52.7478203 215.685326,51.4326613 215.685326,46.7880208 C215.685326,41.7922604 220.168266,38.8077396 224.503365,38.8077396 C229.189584,38.8077396 231.333264,41.037659 232.446683,43.6233179 C232.694623,44.1992788 233.338342,44.4964977 233.948183,44.3455783 L256.777144,38.6491175 C257.442425,38.4843363 257.861305,37.8267557 257.747344,37.1506958 C255.828503,25.7238962 246.067983,20.2414953 241.515743,18.2733755 C235.073923,15.5783755 228.746063,15.1410161 225.351904,15.1410161 C207.424764,15.1410161 188.373423,26.8403962 188.373423,48.5266774 C188.373423,68.8854769 207.118303,76.6393778 214.173043,79.5576774 L215.425063,80.0935967 C230.421584,86.5492764 234.453303,88.2848571 234.453303,93.5008363 C234.453303,98.2440368 230.703402,103.362998 224.646582,103.362998 C223.296001,103.362998 217.108282,102.931797 214.909162,95.2995576 C214.721282,94.6419769 214.063702,94.229258 213.390722,94.3709377 L188.801543,99.465258 C188.074662,99.6161774 187.626522,100.343058 187.802082,101.063776 C189.905722,109.707797 194.128402,115.036198 196.975863,117.794339 C203.536264,123.920458 212.927183,127.023558 224.926863,127.023558 C239.362824,127.023558 249.760904,122.528297 255.833123,113.657896 C260.995204,106.114977 261.765204,97.0659377 261.765204,92.342758 C261.765204,78.1732189 254.842904,69.4706797 237.074384,61.3025208 L237.074386,61.3025208 Z M313.900781,42.0740807 C306.319362,42.0740807 298.931982,44.0160208 292.391601,47.7135599 C291.954242,47.9599608 291.413703,47.6535 291.413703,47.1514608 L291.413703,44.6628203 C291.413703,43.9436406 290.831583,43.3599816 290.110864,43.3599816 L267.300385,43.3599816 C266.579666,43.3599816 265.996007,43.9436406 265.996007,44.6628203 L265.996007,150.682581 C265.996007,151.40176 266.579666,151.985419 267.300385,151.985419 L290.110864,151.985419 C290.831583,151.985419 291.413703,151.40176 291.413703,150.682581 L291.413703,122.483641 C291.413703,121.98006 291.954242,121.673599 292.391601,121.92 C298.931982,125.617539 306.317823,127.561018 313.900783,127.561018 C337.798502,127.561018 357.241002,108.384938 357.241002,84.8167788 C357.241002,61.2486198 337.798502,42.0740807 313.900783,42.0740807 L313.900781,42.0740807 Z M309.989184,104.420982 C299.029005,104.420982 291.415244,95.6275807 291.415244,84.8167811 C291.415244,74.0075208 299.029005,65.2141198 309.989184,65.2141198 C320.950903,65.2141198 329.867502,74.0075208 329.867502,84.8167811 C329.867502,95.6275807 320.950903,104.420982 309.989184,104.420982 Z M401.89176,42.0740807 C377.9925,42.0740807 358.55,61.2486198 358.55,84.8167788 C358.55,108.384938 377.9925,127.561018 401.89176,127.561018 C425.791021,127.561018 445.233521,108.384938 445.233521,84.8167788 C445.233521,61.2486198 425.791021,42.0740807 401.89176,42.0740807 Z M401.89176,103.45232 C391.473661,103.45232 382.997502,95.0932005 382.997502,84.8167811 C382.997502,74.5419009 391.473661,66.1827811 401.89176,66.1827811 C412.311401,66.1827811 420.78756,74.5434401 420.78756,84.8167811 C420.78756,95.0932005 412.311401,103.45232 401.89176,103.45232 Z M493.972979,103.77418 L489.53624,103.77418 C487.116899,103.77418 485.299698,103.173581 484.133917,101.9847 C482.141157,99.9565208 482.255117,96.5577396 482.338276,94.0767995 L482.355217,93.513159 C482.361375,93.3083387 482.364456,73.2837189 482.365995,66.5061797 C482.365995,65.7854608 482.949654,65.2079608 483.670373,65.2079608 L492.143454,65.2079608 C492.861094,65.2079608 493.446295,64.6227604 493.446295,63.9035807 L493.446295,44.5904401 C493.446295,43.8727995 492.861094,43.2875991 492.143454,43.2875991 L483.670373,43.2875991 C482.949654,43.2875991 482.365995,42.7039401 482.365995,41.9832212 L482.365995,19.5916222 C482.365995,18.8724424 481.782336,18.287242 481.063157,18.287242 L458.252677,18.287242 C457.531958,18.287242 456.9483,18.8724424 456.9483,19.5916222 L456.9483,41.9832212 C456.9483,42.7039401 456.363099,43.2875991 455.643919,43.2875991 L447.17238,43.2875991 C446.451661,43.2875991 445.868002,43.8727995 445.868002,44.5904401 L445.868002,63.9035807 C445.868002,64.6242995 446.451661,65.2079585 447.17238,65.2079585 L455.643919,65.2079585 C456.363099,65.2079585 456.9483,65.7916175 456.9483,66.5107972 L456.9483,105.703797 C456.9483,118.431896 464.27562,125.543615 478.13562,126.270495 C478.244961,126.276654 478.392802,126.279735 478.576062,126.279735 C480.852182,126.279735 488.331963,125.854696 491.130143,125.689915 C491.744604,125.652954 492.249724,125.192493 492.340583,124.582652 L495.261963,105.274131 C495.382083,104.487191 494.770703,103.77417 493.972984,103.77417 L493.972979,103.77418 Z M523.882859,43.3692189 L501.07238,43.3692189 C500.351661,43.3692189 499.768002,43.9544193 499.768002,44.6735991 L499.768002,123.69562 C499.768002,124.416339 500.351661,124.999998 501.07238,124.999998 L523.882859,124.999998 C524.603578,124.999998 525.185698,124.416339 525.185698,123.69562 L525.185698,44.6735991 C525.185698,43.9528802 524.603578,43.3692189 523.882859,43.3692189 L523.882859,43.3692189 Z M523.882859,17.6604608 L501.07238,17.6604608 C500.351661,17.6604608 499.768002,18.2425807 499.768002,18.9632995 L499.768002,35.6183986 C499.768002,36.3391175 500.351661,36.9227764 501.07238,36.9227764 L523.882859,36.9227764 C524.603578,36.9227764 525.185698,36.3391175 525.185698,35.6183986 L525.185698,18.9632995 C525.185698,18.2425807 524.603578,17.6604608 523.882859,17.6604608 Z M600.027651,43.3692165 C600.574352,43.3692165 601.062532,43.7095576 601.251951,44.2208387 L601.251951,44.2208387 L616.129891,84.4425576 C616.556472,85.5944769 618.190412,85.572917 618.586193,84.411758 L618.586193,84.411758 L632.298352,44.2531774 C632.480071,43.7249585 632.975951,43.3692165 633.53343,43.3692165 L633.53343,43.3692165 L657.555891,43.3692165 C658.458331,43.3692165 659.088191,44.2654977 658.78173,45.1155783 L658.78173,45.1155783 L633.089909,116.517677 L621.12873,150.483917 C620.945469,151.004438 620.45267,151.352477 619.89981,151.352477 L619.89981,151.352477 L594.548331,151.352477 C593.656672,151.352477 593.026813,150.477758 593.313253,149.632297 L593.313253,149.632297 L603.246253,120.205977 C603.340193,119.924157 603.337112,119.619237 603.235472,119.338956 L603.235472,119.338956 L576.079112,45.1217373 C575.766492,44.2701175 576.396352,43.3692165 577.303412,43.3692165 L577.303412,43.3692165 Z M561.449622,17.6542948 C563.236023,17.5603547 564.383323,17.6527557 564.431062,17.6558363 L564.431062,17.6558363 L577.342422,17.6542972 C578.113961,17.6542972 578.716101,18.3195783 578.639101,19.0880392 L578.639101,19.0880392 L576.817281,37.0490599 C576.749521,37.7158802 576.188961,38.221 575.520601,38.221 L575.520601,38.221 L572.848705,38.2209953 C570.614166,38.2209953 568.889366,38.8231359 567.725127,40.0089354 C565.763166,42.0063156 565.653825,45.716175 565.664606,48.494334 C565.666145,49.2119745 566.248265,49.7925552 566.968984,49.7925552 L566.968984,49.7925552 L575.457463,49.7925552 C576.175104,49.7925552 576.760304,50.3762142 576.760304,51.0953939 L576.760304,51.0953939 L576.760304,70.3407741 C576.760304,71.0584146 576.175104,71.6436151 575.457463,71.6436151 L575.457463,71.6436151 L566.984383,71.6436151 C566.263664,71.6436151 565.680005,72.2272741 565.680005,72.9464538 L565.680005,72.9464538 L565.647664,123.698693 C565.647664,124.416334 565.062463,124.999993 564.343283,124.999993 L564.343283,124.999993 L541.538963,124.999993 C540.816703,124.999993 540.231502,124.411712 540.236122,123.689451 L540.236122,123.689451 L540.262302,119.206511 L540.262302,72.9479906 C540.262302,72.2288109 539.677101,71.6436104 538.957922,71.6436104 L538.957922,71.6436104 L530.486383,71.6436104 C529.765664,71.6436104 529.182005,71.0599514 529.182005,70.3407717 L529.182005,70.3407717 L529.182005,51.0953915 C529.182005,50.3762118 529.765664,49.7925529 530.486383,49.7925529 L530.486383,49.7925529 L538.957922,49.7925529 C539.677101,49.7925529 540.262302,49.2088939 540.262302,48.488175 L540.262302,48.488175 L540.262302,38.8647142 C540.262302,20.7265944 555.078643,17.9884745 561.449622,17.6542948 Z M745.374901,87.7058203 C745.113101,87.1052212 745.336401,86.4060623 745.8985,86.0672627 C747.7157,84.9707835 749.492859,83.6587028 751.49332,81.9354424 C758.169221,76.1234816 762.6537,64.718242 762.6537,53.5609424 C762.6537,42.0402028 758.118401,31.5897627 750.2105,24.8907627 C744.44012,20.0182028 736.99576,16.9998019 717.75962,16.9998019 L684.48638,16.9998019 C683.765661,16.9998019 683.182002,17.5850023 683.182002,18.3026429 L683.182002,123.529302 C683.182002,124.250021 683.765661,124.83368 684.48638,124.83368 L709.33274,124.83368 C710.051919,124.83368 710.634039,124.250021 710.634039,123.529302 L710.634039,92.5845415 C710.634039,91.8653618 711.21924,91.283242 711.938419,91.283242 L716.25812,91.283242 C716.77556,91.283242 717.243719,91.5897028 717.45162,92.0624839 L731.556479,124.384005 C731.76438,124.859864 732.232539,125.166325 732.749979,125.166325 L759.730779,125.166325 C760.67018,125.166325 761.301581,124.202286 760.92582,123.341426 L745.374901,87.7058203 Z M730.20282,64.8984264 C726.73474,66.4615255 722.532081,66.4615255 720.02188,66.4615255 L711.939961,66.4615255 C711.219242,66.4615255 710.635583,65.876325 710.635583,65.1571453 L710.635583,43.1243641 C710.635583,42.4051844 711.219242,41.8215255 711.939961,41.8215255 L719.03012,41.8215255 C721.92994,41.8215255 726.31124,41.8215255 729.924081,43.3830854 C734.234542,45.2511061 736.330482,48.7222651 736.330482,53.9936844 C736.330482,57.7097052 735.266341,62.6176844 730.20282,64.898424 L730.20282,64.8984264 Z M791.226859,43.3692189 L768.41638,43.3692189 C767.695661,43.3692189 767.112002,43.9544193 767.112002,44.6735991 L767.112002,123.69562 C767.112002,124.416339 767.695661,124.999998 768.41638,124.999998 L791.226859,124.999998 C791.947578,124.999998 792.529698,124.416339 792.529698,123.69562 L792.529698,44.6735991 C792.529698,43.9528802 791.947578,43.3692189 791.226859,43.3692189 L791.226859,43.3692189 Z M791.226859,17.6604608 L768.41638,17.6604608 C767.695661,17.6604608 767.112002,18.2425807 767.112002,18.9632995 L767.112002,35.6183986 C767.112002,36.3391175 767.695661,36.9227764 768.41638,36.9227764 L791.226859,36.9227764 C791.947578,36.9227764 792.529698,36.3391175 792.529698,35.6183986 L792.529698,18.9632995 C792.529698,18.2425807 791.947578,17.6604608 791.226859,17.6604608 Z M847.664781,42.0740807 C840.083362,42.0740807 832.695982,44.0160208 826.155601,47.7135599 C825.718242,47.9599608 825.177703,47.6535 825.177703,47.1514608 L825.177703,44.6628203 C825.177703,43.9436406 824.595583,43.3599816 823.874864,43.3599816 L801.064385,43.3599816 C800.343666,43.3599816 799.760007,43.9436406 799.760007,44.6628203 L799.760007,150.682581 C799.760007,151.40176 800.343666,151.985419 801.064385,151.985419 L823.874864,151.985419 C824.595583,151.985419 825.177703,151.40176 825.177703,150.682581 L825.177703,122.483641 C825.177703,121.98006 825.718242,121.673599 826.155601,121.92 C832.695982,125.617539 840.081823,127.561018 847.664783,127.561018 C871.562502,127.561018 891.005002,108.384938 891.005002,84.8167788 C891.005002,61.2486198 871.562502,42.0740807 847.664783,42.0740807 L847.664781,42.0740807 Z M843.753184,104.420982 C832.793005,104.420982 825.179244,95.6275807 825.179244,84.8167811 C825.179244,74.0075208 832.793005,65.2141198 843.753184,65.2141198 C854.714903,65.2141198 863.631502,74.0075208 863.631502,84.8167811 C863.631502,95.6275807 854.714903,104.420982 843.753184,104.420982 Z M943.144781,42.0740807 C935.563362,42.0740807 928.175982,44.0160208 921.635601,47.7135599 C921.198242,47.9599608 920.657703,47.6535 920.657703,47.1514608 L920.657703,44.6628203 C920.657703,43.9436406 920.075583,43.3599816 919.354864,43.3599816 L896.544385,43.3599816 C895.823666,43.3599816 895.240007,43.9436406 895.240007,44.6628203 L895.240007,150.682581 C895.240007,151.40176 895.823666,151.985419 896.544385,151.985419 L919.354864,151.985419 C920.075583,151.985419 920.657703,151.40176 920.657703,150.682581 L920.657703,122.483641 C920.657703,121.98006 921.198242,121.673599 921.635601,121.92 C928.175982,125.617539 935.561823,127.561018 943.144783,127.561018 C967.042502,127.561018 986.485002,108.384938 986.485002,84.8167788 C986.485002,61.2486198 967.042502,42.0740807 943.144783,42.0740807 L943.144781,42.0740807 Z M939.233184,104.420982 C928.273005,104.420982 920.659244,95.6275807 920.659244,84.8167811 C920.659244,74.0075208 928.273005,65.2141198 939.233184,65.2141198 C950.194903,65.2141198 959.111502,74.0075208 959.111502,84.8167811 C959.111502,95.6275807 950.194903,104.420982 939.233184,104.420982 Z M1072.71114,72.7447189 C1071.79946,69.6801198 1070.51972,66.6986797 1068.90426,63.8758594 L1068.91658,63.8697005 L1068.11578,62.5452995 C1067.91866,62.2265184 1067.71538,61.9108179 1067.51056,61.596659 L1067.04394,60.8913387 C1066.80678,60.5309792 1066.55576,60.1798594 1066.2955,59.8364401 L1066.2493,59.7763802 C1065.9336,59.3451797 1065.60866,58.9232189 1065.27602,58.5074193 L1065.00498,58.1717005 C1064.72162,57.8221198 1064.43518,57.477159 1064.14258,57.1383594 L1063.9162,56.8734792 L1063.4234,57.2938986 L1063.8469,56.7964792 C1063.39106,56.2805783 1062.90288,55.7523594 1062.35618,55.1902604 L1062.09438,54.923841 C1061.75404,54.5819608 1061.40908,54.246242 1061.0595,53.9166821 L1060.94862,53.8088825 C1060.51588,53.3961637 1060.07236,52.9973042 1059.61498,52.6123042 L1059.26848,52.3197052 C1058.66172,51.8068849 1058.0873,51.3448849 1057.4944,50.8967443 C1057.3558,50.7904839 1057.2172,50.6888434 1057.07552,50.5872028 L1056.96002,50.5009632 C1056.27164,49.9973825 1055.56016,49.5061222 1054.8071,49.0179424 L1054.71624,48.9625023 C1054.00168,48.5112835 1052.81588,47.8059632 1052.07822,47.3963226 C1051.88264,47.2869816 1051.68552,47.1822627 1051.47916,47.0744632 L1051.14036,47.6257835 L1051.4114,47.0390439 L1051.29744,46.9805231 C1050.96326,46.8080439 1050.62908,46.6371038 1050.25794,46.4553849 L1050.06698,46.3660646 C1049.31392,46.0041637 1048.57318,45.6730646 1047.87094,45.3820047 L1047.65534,45.2957651 C1047.22568,45.1217443 1046.79448,44.9523434 1046.30322,44.769083 C1046.13998,44.7090231 1045.97674,44.6505023 1045.81504,44.5950623 C1045.28374,44.4056429 1044.7509,44.2254632 1044.18264,44.0468226 L1044.0887,44.0175623 C1043.52968,43.845083 1042.91984,43.6726038 1042.22684,43.492424 L1041.694,43.3569033 C1040.48048,43.0566038 1039.2377,42.8071245 1038.00108,42.6130854 L1037.4821,42.5345462 C1036.21006,42.3512858 1034.90876,42.2203849 1033.5936,42.1464655 L1033.1162,42.121825 C1032.36314,42.0894839 1031.73328,42.074083 1031.1373,42.074083 C1030.53208,42.074083 1029.87604,42.0894839 1029.1276,42.1233641 C1028.96898,42.1310646 1028.81036,42.1418457 1028.65328,42.1495462 L1028.53624,42.1587858 C1028.04498,42.1865047 1027.55526,42.2234655 1027.07016,42.2665854 L1026.9177,42.2804448 C1026.77448,42.2943042 1026.62972,42.3081637 1026.48804,42.3220231 C1025.7781,42.3974839 1025.1544,42.4744839 1024.5846,42.5591844 L1024.56458,42.5622651 C1024.55688,42.5638042 1024.5461,42.5653434 1024.53686,42.5653434 L1024.43522,42.5807443 C1023.86696,42.6685255 1022.93988,42.8363849 1022.37778,42.953424 L1022.04976,43.0211844 C1021.5816,43.1212835 1021.11652,43.2260023 1020.65144,43.3399632 L1020.50668,43.3753825 C1020.36962,43.4092627 1020.2341,43.4416038 1020.10012,43.4754839 C1019.47642,43.6371844 1018.86042,43.8065854 1018.24288,43.9960047 C1017.63458,44.1823457 1017.03244,44.387166 1016.43492,44.5996868 C1016.2994,44.6474264 1016.16388,44.6967075 1016.02836,44.749067 L1015.90362,44.7952674 C1015.46318,44.958507 1015.02736,45.127908 1014.59308,45.305007 L1014.47296,45.3527467 C1014.33898,45.4081868 1014.205,45.4620877 1014.07102,45.5175278 C1013.49198,45.7623872 1012.91756,46.0164863 1012.34006,46.2906061 C1011.77334,46.5601061 1011.2174,46.845007 1010.66454,47.136067 C1010.5321,47.2053665 1010.40428,47.2777467 1010.27492,47.3470462 L1010.1702,47.4040255 C1009.76364,47.627325 1009.36324,47.8537052 1008.96284,48.089325 L1008.48236,48.3742259 C1007.95106,48.6960854 1007.42438,49.0256453 1006.90848,49.3690646 C1001.74024,52.809424 997.298883,57.4047835 994.066422,62.6561844 C993.741482,63.1828641 993.430401,63.720325 993.12856,64.2624056 L992.7528,64.9538665 C992.67888,65.0878457 992.6065,65.221825 992.535659,65.3573457 C992.466359,65.4867052 992.40168,65.6191453 992.338539,65.7515854 L992.176839,66.0765255 C992.11062,66.2089655 992.044401,66.3414056 991.98126,66.4738457 C991.710221,67.0344056 991.448422,67.6011245 991.200482,68.1755439 C990.773901,69.1703849 990.371961,70.2376038 989.973101,71.4326429 C988.758042,75.0655023 988.045021,78.8292627 987.850982,82.6161222 C987.812482,83.3414632 987.794002,84.0806637 987.794002,84.8167835 C987.794002,85.5498226 987.812482,86.2905623 987.850982,87.0159033 C987.960323,89.1703641 988.239062,91.3294448 988.673343,93.4300047 C988.819643,94.1322443 988.982883,94.8267835 989.158442,95.4966844 C989.372502,96.3175047 989.631221,97.1752858 989.973101,98.1993849 C990.584482,100.033525 991.312901,101.809145 992.132182,103.472346 C992.199942,103.606325 992.267703,103.738765 992.338544,103.871205 L992.464825,104.114525 C992.692744,104.556505 992.923744,105.000025 993.165525,105.432765 L993.276406,105.642205 C993.532046,106.091885 993.795387,106.535406 994.066426,106.974307 C997.298887,112.227247 1001.74025,116.821067 1006.90849,120.261426 C1007.42439,120.606387 1007.95107,120.935947 1008.48237,121.257807 L1008.96285,121.542708 C1009.36017,121.776788 1009.76365,122.004708 1010.16867,122.226468 L1010.27338,122.283447 C1010.40274,122.354288 1010.5321,122.425129 1010.66146,122.494429 C1011.21432,122.787028 1011.7718,123.071929 1012.28616,123.31371 L1012.34776,123.346051 C1012.91602,123.614012 1013.49044,123.868111 1014.06948,124.11297 C1014.20346,124.169949 1014.33744,124.22539 1014.47142,124.277749 L1014.59154,124.32703 C1015.02428,124.504129 1015.46164,124.671989 1015.90054,124.835228 L1016.00834,124.876809 C1016.14848,124.929168 1016.2917,124.981528 1016.43184,125.032348 C1017.02936,125.244869 1017.6315,125.449689 1018.24904,125.637569 C1018.80036,125.808509 1019.40558,125.976369 1020.09396,126.155009 C1020.22948,126.190429 1020.36654,126.22277 1020.50206,126.255111 L1020.6499,126.292072 C1021.11344,126.404491 1021.58006,126.510751 1022.04822,126.61085 L1022.61186,126.72789 C1023.13392,126.835689 1023.65906,126.931168 1024.18882,127.012788 L1024.53378,127.066689 C1024.54456,127.066689 1024.55226,127.068228 1024.56304,127.071309 L1024.58152,127.072848 C1025.15132,127.157549 1025.77656,127.234549 1026.48496,127.310009 C1026.62664,127.323869 1026.7714,127.337728 1026.91308,127.350049 L1027.06554,127.363908 C1027.55372,127.408567 1028.04344,127.445528 1028.5347,127.473247 L1028.681,127.484028 C1028.8273,127.493267 1028.97668,127.500968 1029.12606,127.508668 C1029.87296,127.542549 1030.529,127.557949 1031.13576,127.557949 C1031.73174,127.557949 1032.36006,127.542549 1033.13776,127.510208 L1033.61516,127.484028 C1034.90722,127.411648 1036.20852,127.282288 1037.52522,127.092869 L1037.99492,127.020489 C1039.23462,126.824908 1040.47894,126.575429 1041.7248,126.267429 L1042.21914,126.141148 C1042.9183,125.959429 1043.52968,125.786949 1044.11334,125.60677 L1044.21036,125.574429 C1044.75398,125.405028 1045.29144,125.223309 1045.82582,125.032348 L1046.35558,124.839848 C1046.79294,124.679689 1047.22568,124.508749 1047.71694,124.311629 L1047.86324,124.253108 C1048.58704,123.954348 1049.31392,123.627869 1050.087,123.255189 L1050.2872,123.161249 C1050.626,122.996468 1050.9648,122.825528 1051.34518,122.626869 L1051.48378,122.556028 C1051.68244,122.451309 1051.8811,122.345049 1052.07822,122.238788 L1052.31538,122.104809 C1053.13774,121.648968 1053.95086,121.162327 1054.75782,120.646426 L1054.95648,120.517067 C1055.65718,120.062767 1056.34556,119.585366 1057.01854,119.087947 L1057.50826,118.724507 C1058.08422,118.288687 1058.66018,117.828226 1059.2731,117.310786 L1058.84806,116.824145 L1059.34086,117.255346 L1059.77514,116.885747 C1060.17708,116.543866 1060.56824,116.189666 1060.94862,115.826226 L1061.05488,115.724585 C1061.406,115.391945 1061.75404,115.051604 1062.09592,114.708184 L1062.39006,114.409424 C1062.91828,113.867343 1063.39414,113.349903 1063.88232,112.800122 L1064.13796,112.501362 C1064.43364,112.156401 1064.72623,111.808362 1065.03115,111.431062 L1065.27294,111.130763 C1065.43156,110.932104 1065.58709,110.728823 1065.74109,110.525542 L1065.76265,110.5317 L1066.04139,110.15594 C1066.50493,109.533781 1066.97155,108.86388 1067.48283,108.08618 C1067.88939,107.46556 1068.23589,106.911159 1068.57161,106.34444 L1068.93505,105.746919 L1068.91811,105.73768 C1069.28001,105.0955 1069.90063,103.825 1070.39343,102.79782 C1070.76611,102.021661 1070.29641,101.105362 1069.44787,100.954442 L1047.55369,97.019742 C1047.07321,96.9335023 1046.59119,97.1306222 1046.28935,97.5171613 C1042.36697,102.534482 1036.85839,105.135542 1030.94941,105.135542 C1024.00093,105.135542 1017.71157,101.42876 1014.19729,95.4720415 C1013.68139,94.5988618 1014.30509,93.4916014 1015.31841,93.4916014 L1072.48937,93.4916014 C1073.12847,93.4916014 1073.67055,93.0326821 1073.77835,92.4028226 C1074.19877,89.9449816 1074.47751,87.1699009 1074.47751,84.815242 C1074.47597,80.7357811 1073.88307,76.6732604 1072.71113,72.7447212 L1072.71114,72.7447189 Z M1047.64763,75.5074816 L1016.58275,75.5074816 C1015.76655,75.5074816 1015.14593,74.7605807 1015.29685,73.9582396 C1016.43337,67.9337604 1024.07023,63.2752604 1032.11365,63.2752604 C1040.96249,63.2752604 1047.92175,67.9661014 1048.93661,73.9798019 C1049.07213,74.7775208 1048.45613,75.5074816 1047.64763,75.5074816 Z M1122.25294,43.3769193 C1116.86602,43.4462189 1110.46886,44.140758 1105.06192,47.505659 C1104.62918,47.7736198 1104.0717,47.461 1104.0717,46.9527995 L1104.0717,44.6735991 C1104.0717,43.9528802 1103.48958,43.3692212 1102.76886,43.3692212 L1079.95838,43.3692212 C1079.23767,43.3692212 1078.65401,43.9528802 1078.65401,44.6735991 L1078.65401,123.69562 C1078.65401,124.416339 1079.23767,124.999998 1079.95838,124.999998 L1104.30271,124.999998 C1105.02188,124.999998 1105.60554,124.416339 1105.60554,123.69562 L1105.60554,77.7574193 C1105.60554,74.5957995 1105.60554,72.0963802 1106.92686,69.2720208 C1107.4135,68.1755415 1109.11059,65.9148226 1112.04737,65.2064217 C1114.67923,64.5704009 1119.14061,64.8660807 1121.37669,65.0755208 C1122.11897,65.1432811 1122.76269,64.5765623 1122.79349,63.8296613 L1123.57119,44.7352005 C1123.60199,43.9852212 1123.00293,43.3661406 1122.25295,43.3769217 L1122.25294,43.3769193 Z M83.7525015,0.277 C37.6379791,0.277 0.253,37.6618749 0.253,83.7774986 C0.253,129.895116 37.6379791,167.277 83.7525015,167.277 C129.872009,167.277 167.253,129.895116 167.253,83.7774986 C167.253,37.6648662 129.872009,0.280988465 83.7515044,0.280988465 L83.7525015,0.277 Z M122.044835,120.708686 C120.549196,123.161591 117.338559,123.939342 114.885712,122.433697 C95.2808828,110.458332 70.6008539,107.746176 41.535613,114.386969 C38.7347807,115.025124 35.9429222,113.270199 35.3047831,110.468303 C34.6636528,107.666407 36.4115556,104.874482 39.2193675,104.236327 C71.0266123,96.9693449 98.3100492,100.098295 120.319865,113.549392 C122.772712,115.055037 123.550444,118.25578 122.044835,120.708686 L122.044835,120.708686 Z M132.265031,97.9724437 C130.380526,101.035584 126.372215,102.002787 123.311142,100.118238 C100.866594,86.3221389 66.6533654,82.3266946 40.1057826,90.3853871 C36.6628229,91.4253792 33.0264272,89.4849913 31.9814744,86.047932 C30.9444984,82.60489 32.8858372,78.9753873 36.3228144,77.9284154 C66.6473828,68.7270278 104.346446,73.1841368 130.121282,89.0233265 C133.182356,90.907876 134.149535,94.9162828 132.265031,97.9734408 L132.265031,97.9724437 Z M133.142472,74.2969184 C106.230951,58.3121498 61.8304299,56.8424007 36.1363581,64.6408459 C32.0103901,65.8922266 27.6471142,63.5629634 26.3967604,59.4368968 C25.1464067,55.3088361 27.4736201,50.9484473 31.6025794,49.6940752 C61.097567,40.7399724 110.129581,42.4699688 141.113228,60.86377 C144.832382,63.0663995 146.048835,67.8595367 143.845261,71.5658174 C141.651658,75.2770836 136.845673,76.5005451 133.14646,74.2969184 L133.142472,74.2969184 Z" id="Combined-Shape" fill="#1ED760" fill-rule="nonzero"></path>
    </g>
</svg>